<?xml version="1.0" encoding="UTF-8"?>
<svg id="Layer_2" data-name="Layer 2" xmlns="http://www.w3.org/2000/svg" viewBox="0 0 279.1 104.26">
  <defs>
    <style>
      .cls-1 {
        fill: #f9a31a;
      }

      .cls-1, .cls-2 {
        stroke-width: 0px;
      }

      .cls-2 {
        fill: #c81b71;
      }
    </style>
  </defs>
  <g id="Layer_1-2" data-name="Layer 1">
    <path class="cls-1" d="M173.16,19.66l6.3-19.66h-104.5l-.51,1.6-32.75,101.84h20.06l11.44-26.99,11.73,26.99h61.22l6.2-19.66h-67.18l8.42-26.05h62.35l6.38-19.66h-62.38l5.95-18.41h67.27Z"/>
    <polygon class="cls-2" points="118.72 103.51 84.96 103.51 84.93 103.44 73.2 76.45 61.76 103.44 61.73 103.51 30.83 103.51 74.22 1.08 74.45 1.6 98.83 57.73 110.15 83.78 118.69 103.44 118.72 103.51"/>
    <path class="cls-1" d="M279.1,47.2c0,1.05-.13,2.41-.39,4.07-.26,1.66-.68,3.33-1.25,4.99l-16.32,48h-35.29l12.47-36.57c.9-2.8,1.61-5.17,2.13-7.09.51-1.93.77-3.66.77-5.18,0-2.93-1.08-5.04-3.24-6.34-2.16-1.29-6.08-1.94-11.76-1.94-2.78,0-5.97.41-9.58,1.21-3.62.81-7.65,2.03-12.1,3.64l-17.76,52.27h-35.07L186.42,2.09h35.07l-12.43,36.57c7.1-3.19,13.63-5.69,19.57-7.48,5.94-1.79,12.46-2.69,19.57-2.69,9.88,0,17.5,1.63,22.86,4.89,5.36,3.26,8.04,7.87,8.04,13.82Z"/>
    <g>
      <path class="cls-2" d="M6.48,58.84l5.32,3.83c-1.41,1.81-2.54,3.71-3.39,5.7-1.26,2.94-1.56,5.93-.92,8.96.65,3.04,1.99,5.75,4.03,8.15,2.04,2.4,4.45,4.19,7.23,5.38,1.91.82,3.6.96,5.05.43,1.45-.53,2.53-1.62,3.24-3.28.54-1.26.81-2.37.82-3.35l-6.37-4.36-1.69,3.95-4.9-3.4,5.76-13.47,14.45,9.96c.03,2.59-.14,5-.52,7.22-.38,2.22-1.02,4.4-1.93,6.53-1.99,4.67-4.63,7.85-7.91,9.55-3.28,1.7-6.71,1.78-10.29.25-3.87-1.66-7.11-4.22-9.71-7.68S.61,85.61.13,80.82c-.49-4.79.42-9.86,2.7-15.22.87-2.04,2.09-4.29,3.65-6.77Z"/>
      <path class="cls-2" d="M33.73,30.08c4.02,1.72,7.32,4.01,9.9,6.86,2.58,2.85,4.19,6.06,4.83,9.61.64,3.55.16,7.19-1.43,10.91-1.83,4.29-4.45,7.09-7.86,8.41-3.41,1.32-7.14,1.11-11.19-.62-3.66-1.57-6.81-3.74-9.43-6.53-2.63-2.79-4.35-5.97-5.18-9.53-.83-3.56-.44-7.21,1.16-10.96,1.22-2.84,2.82-5.07,4.81-6.67,1.99-1.6,4.22-2.53,6.7-2.79,2.48-.26,5.04.18,7.69,1.31ZM41.22,54.56c.62-1.44.5-3.06-.37-4.84-.86-1.78-2.31-3.52-4.34-5.22-2.03-1.69-4.42-3.13-7.17-4.3-4.86-2.07-7.87-1.75-9.03.98-.54,1.26-.37,2.75.49,4.5.86,1.74,2.31,3.47,4.35,5.18,2.04,1.71,4.47,3.17,7.28,4.37,2.37,1.01,4.3,1.45,5.8,1.3,1.49-.15,2.49-.8,2.98-1.96Z"/>
      <path class="cls-2" d="M57.75,32.36c-.66,1.54-1.62,2.72-2.88,3.54-1.26.82-2.44,1-3.53.53s-1.77-1.43-2.06-2.92c-.29-1.48-.11-3,.55-4.54s1.67-2.82,2.94-3.62c1.27-.8,2.45-.97,3.53-.51s1.75,1.41,2.06,2.85c.31,1.45.11,3-.6,4.66ZM47.44,25.01l-.74,1.74c-.78.25-2.45.07-5-.56-2.55-.63-4.79-1.35-6.74-2.19-4.48-1.91-7.32-3.91-8.54-5.98-1.21-2.07-1.32-4.27-.33-6.59.67-1.56,1.53-2.59,2.59-3.08,1.06-.49,2.24-.45,3.55.11,1.41.6,3.26,2.01,5.57,4.23,2.31,2.22,4.42,4.55,6.33,6.99,1.91,2.44,3.01,4.22,3.3,5.32Z"/>
    </g>
  </g>
</svg>