<?xml version="1.0" encoding="UTF-8"?>
<svg id="Layer_2" data-name="Layer 2" xmlns="http://www.w3.org/2000/svg" viewBox="0 0 178.89 93.03">
  <defs>
    <style>
      .cls-1, .cls-2, .cls-3, .cls-4 {
        stroke-width: 0px;
      }

      .cls-1, .cls-2, .cls-4 {
        fill: #005f56;
      }

      .cls-1, .cls-5 {
        opacity: .75;
      }

      .cls-2 {
        opacity: .5;
      }

      .cls-6, .cls-5, .cls-7, .cls-8 {
        stroke: #005f56;
        stroke-miterlimit: 10;
      }

      .cls-6, .cls-3 {
        fill: #fff;
      }

      .cls-6, .cls-7 {
        stroke-width: 4px;
      }

      .cls-5, .cls-8 {
        fill: #cc3266;
      }

      .cls-7 {
        fill: none;
      }

      .cls-8 {
        opacity: .53;
      }
    </style>
  </defs>
  <g id="Layer_1-2" data-name="Layer 1">
    <path class="cls-1" d="M25.62,2.13h63.61v32.83H2v-17.71C2,8.9,12.58,2.13,25.62,2.13Z"/>
    <line class="cls-5" x1="89.23" y1="34.96" x2="89.23" y2="2"/>
    <path class="cls-1" d="M89.61,2.13h61.34c14.3,0,25.89,7.42,25.89,16.57v16.26h-87.23V2.13Z"/>
    <path class="cls-6" d="M2,33.49h87.23v57.54H23.97c-12.13,0-21.97-9.34-21.97-20.86v-36.68Z"/>
    <line class="cls-6" x1="89.23" y1="91.03" x2="89.23" y2="33.49"/>
    <line class="cls-6" x1="89.61" y1="33.49" x2="89.61" y2="91.03"/>
    <path class="cls-6" d="M89.61,33.49h87.23v30.16c0,15.12-12.91,27.38-28.84,27.38h-58.4v-57.54Z"/>
    <path class="cls-2" d="M1.82,33.18h87.23v57.54H23.47c-11.96,0-21.65-9.2-21.65-20.56v-36.98Z"/>
    <line class="cls-8" x1="89.44" y1="33.18" x2="89.44" y2="90.72"/>
    <path class="cls-7" d="M26.47,2h62.81v32.83H2.04v-17.2C2.04,9,12.98,2,26.47,2Z"/>
    <line class="cls-7" x1="89.28" y1="34.76" x2="89.28" y2="1.03"/>
    <line class="cls-7" x1="89.66" y1="2" x2="89.66" y2="34.76"/>
    <path class="cls-7" d="M89.66,2h60.73c14.64,0,26.5,7.59,26.5,16.96v15.87h-87.23V2Z"/>
    <path class="cls-4" d="M132.02,59.01c-.28.16-.55.32-.83.47-.27.15-.54.3-.81.43l-.64-1.31c.23-.13.45-.25.66-.38.21-.13.42-.25.62-.38.2-.13.41-.26.61-.4.21-.14.42-.29.64-.45h1.59v9.71h-1.85v-7.71Z"/>
    <path class="cls-3" d="M49.65,62.75h1.07v1.57h-1.07v1.93h-1.83v-1.93h-4.57v-1.52c.56-1.05,1.16-2.09,1.81-3.13s1.36-2.08,2.12-3.13h2.47v6.21ZM47.84,58.3c-.51.72-1,1.44-1.46,2.18-.46.74-.9,1.5-1.32,2.27h2.78v-4.45Z"/>
    <g>
      <path class="cls-3" d="M25.86,15.77h-3.19v2.09h2.95v1.35h-2.95v2.19h3.19v1.35h-4.82v-8.33h4.82v1.35Z"/>
      <path class="cls-3" d="M31.75,22.25c-.27.2-.57.35-.89.46s-.68.16-1.06.16c-.42,0-.81-.07-1.15-.21s-.65-.35-.89-.61-.44-.59-.58-.97-.21-.81-.21-1.28c0-.51.08-.96.23-1.35s.36-.72.62-.99.57-.47.93-.61.73-.21,1.13-.21c.33,0,.63.04.91.13s.52.21.74.37l-.34,1.22c-.17-.13-.35-.23-.54-.29s-.39-.1-.59-.1-.4.04-.58.12-.34.19-.47.33-.24.33-.32.55-.12.47-.12.76.04.53.11.75c.07.22.17.41.3.57s.29.27.48.36.4.12.64.12c.27,0,.52-.04.73-.13s.41-.22.6-.39l.35,1.25Z"/>
      <path class="cls-3" d="M35.6,16.64c.42,0,.82.07,1.19.21s.7.34.98.6.5.58.67.96.25.81.25,1.29-.08.95-.25,1.34-.39.72-.67.99-.62.48-1,.62-.8.21-1.25.21c-.42,0-.82-.07-1.2-.21s-.71-.34-.99-.6-.5-.58-.67-.96-.25-.81-.25-1.29.08-.95.25-1.34.39-.72.68-1,.62-.48,1.01-.62.81-.21,1.25-.21ZM35.53,17.96c-.2,0-.4.04-.58.12s-.35.2-.49.35-.25.34-.34.56-.13.47-.13.75c0,.3.04.56.13.79s.2.42.34.57.31.27.5.34.39.11.61.11c.2,0,.39-.04.58-.12s.35-.2.49-.35.25-.34.33-.56.12-.47.12-.75c0-.3-.04-.56-.12-.79s-.19-.42-.34-.57-.31-.27-.5-.35-.39-.12-.6-.12Z"/>
      <path class="cls-3" d="M40.1,16.77h1.23l.08.57c.23-.21.49-.38.78-.51s.62-.19.98-.19c.32,0,.62.05.9.15.28.1.52.26.73.46s.37.46.49.78.18.68.18,1.1v3.62h-1.56v-3.43c0-.25-.03-.47-.09-.64s-.14-.32-.25-.43-.23-.19-.36-.24c-.14-.05-.28-.08-.43-.08-.21,0-.41.05-.6.14-.19.1-.37.23-.52.41v4.27h-1.56v-5.98Z"/>
      <path class="cls-3" d="M50,16.64c.42,0,.82.07,1.19.21s.7.34.98.6.5.58.67.96.25.81.25,1.29-.08.95-.25,1.34-.39.72-.67.99-.62.48-1,.62-.8.21-1.25.21c-.42,0-.82-.07-1.2-.21s-.71-.34-.99-.6-.5-.58-.67-.96-.25-.81-.25-1.29.08-.95.25-1.34.39-.72.68-1,.62-.48,1.01-.62.81-.21,1.25-.21ZM49.93,17.96c-.2,0-.4.04-.58.12s-.35.2-.49.35-.25.34-.34.56-.13.47-.13.75c0,.3.04.56.13.79s.2.42.34.57.31.27.5.34.39.11.61.11c.2,0,.39-.04.58-.12s.35-.2.49-.35.25-.34.33-.56.12-.47.12-.75c0-.3-.04-.56-.12-.79s-.19-.42-.34-.57-.31-.27-.5-.35-.39-.12-.6-.12Z"/>
      <path class="cls-3" d="M54.49,16.77h1.23l.08.57c.21-.22.46-.39.73-.51s.58-.19.92-.19c.18,0,.35.02.52.05s.32.09.47.16.29.15.41.26c.13.11.24.23.35.37.11-.12.22-.24.36-.34.13-.1.28-.19.43-.27s.32-.13.5-.17.37-.06.56-.06c.3,0,.58.05.85.15s.5.26.7.46.36.46.47.78.17.68.17,1.1v3.62h-1.56v-3.43c0-.25-.03-.47-.08-.64s-.13-.32-.23-.43-.21-.19-.33-.24-.25-.08-.38-.08c-.1,0-.2.02-.29.04s-.19.07-.28.12-.17.12-.25.2-.16.16-.23.25c.02.09.03.19.03.29s0,.2,0,.31v3.6h-1.56v-3.43c0-.25-.03-.47-.08-.64s-.13-.32-.23-.43-.21-.19-.33-.24c-.12-.05-.25-.08-.38-.08-.19,0-.37.05-.54.14-.17.1-.33.23-.47.41v4.27h-1.56v-5.98Z"/>
      <path class="cls-3" d="M65.68,13.82c.15,0,.29.03.41.08s.23.12.33.22.17.2.22.33.08.26.08.41-.03.29-.08.41-.13.23-.22.33-.2.16-.33.22-.26.08-.41.08-.29-.03-.41-.08-.23-.12-.33-.22-.17-.2-.22-.33-.08-.26-.08-.41.03-.28.08-.41.13-.24.22-.33.2-.16.33-.22.26-.08.41-.08ZM64.9,16.77h1.56v5.98h-1.56v-5.98Z"/>
      <path class="cls-3" d="M73.25,22.23c-.32.21-.67.37-1.05.47s-.79.16-1.22.16c-.48,0-.92-.07-1.3-.21s-.71-.34-.98-.6-.47-.59-.62-.97-.21-.81-.21-1.29.07-.92.2-1.31.33-.72.57-1,.54-.49.89-.64.73-.22,1.14-.22c.38,0,.72.06,1.03.19s.57.31.79.56.38.54.5.89.18.75.18,1.21c0,.11,0,.22,0,.32s-.02.2-.03.3h-3.69c.02.24.08.45.17.63s.2.33.35.46.32.22.52.29c.21.07.44.1.7.1.34,0,.65-.05.93-.15.29-.1.56-.24.83-.43l.32,1.21ZM71.66,19.03c0-.18-.03-.34-.08-.49s-.12-.27-.2-.37c-.09-.1-.2-.18-.32-.24-.13-.05-.27-.08-.42-.08s-.29.03-.42.08-.24.13-.34.23-.18.23-.25.37c-.07.15-.12.31-.16.5h2.2Z"/>
    </g>
    <g>
      <path class="cls-3" d="M108.69,15.8h-2.31v6.95h-1.63v-6.95h-2.32v-1.38h6.26v1.38Z"/>
      <path class="cls-3" d="M108.62,17.43c.34-.25.73-.44,1.15-.57s.88-.2,1.37-.2c.4,0,.76.05,1.08.14s.58.24.8.44.38.45.5.74.17.66.17,1.07v2.01c0,.33.14.49.41.49.09,0,.16-.01.23-.04s.14-.07.21-.13l.15,1.19c-.13.08-.28.15-.45.19s-.35.07-.57.07c-.32,0-.58-.06-.79-.18s-.37-.28-.47-.46c-.1.09-.21.18-.33.26s-.26.16-.41.22-.31.11-.49.14-.36.05-.56.05c-.31,0-.59-.04-.84-.13s-.46-.2-.64-.36-.31-.33-.4-.54c-.09-.21-.14-.44-.14-.68,0-.29.06-.55.18-.78.12-.22.3-.42.53-.58.23-.16.51-.28.84-.36s.71-.12,1.12-.12c.16,0,.31,0,.45.02s.27.03.4.05v-.26c0-.22-.03-.41-.08-.56s-.14-.28-.24-.37-.24-.17-.39-.21-.33-.06-.53-.06c-.37,0-.71.06-1.02.19s-.61.29-.89.49l-.33-1.2ZM112.12,20.49c-.12-.03-.24-.05-.37-.06s-.25-.02-.39-.02c-.2,0-.38.02-.53.04s-.28.07-.38.13-.18.12-.23.21-.08.18-.08.28c0,.1.02.18.06.26s.09.14.16.19.15.09.25.12.21.04.33.04c.26,0,.49-.05.68-.14s.36-.22.49-.37v-.67Z"/>
      <path class="cls-3" d="M115.4,17.43c.34-.25.73-.44,1.15-.57s.88-.2,1.37-.2c.4,0,.76.05,1.08.14s.58.24.8.44.38.45.5.74.17.66.17,1.07v2.01c0,.33.14.49.41.49.09,0,.16-.01.23-.04s.14-.07.21-.13l.15,1.19c-.13.08-.28.15-.45.19s-.35.07-.57.07c-.32,0-.58-.06-.79-.18s-.37-.28-.47-.46c-.1.09-.21.18-.33.26s-.26.16-.41.22-.31.11-.49.14-.36.05-.56.05c-.31,0-.59-.04-.84-.13s-.46-.2-.64-.36-.31-.33-.4-.54c-.09-.21-.14-.44-.14-.68,0-.29.06-.55.18-.78.12-.22.3-.42.53-.58.23-.16.51-.28.84-.36s.71-.12,1.12-.12c.16,0,.31,0,.45.02s.27.03.4.05v-.26c0-.22-.03-.41-.08-.56s-.14-.28-.24-.37-.24-.17-.39-.21-.33-.06-.53-.06c-.37,0-.71.06-1.02.19s-.61.29-.89.49l-.33-1.2ZM118.9,20.49c-.12-.03-.24-.05-.37-.06s-.25-.02-.39-.02c-.2,0-.38.02-.53.04s-.28.07-.38.13-.18.12-.23.21-.08.18-.08.28c0,.1.02.18.06.26s.09.14.16.19.15.09.25.12.21.04.33.04c.26,0,.49-.05.68-.14s.36-.22.49-.37v-.67Z"/>
      <path class="cls-3" d="M123.92,20.89c0,.22.05.39.14.5s.23.16.4.16c.1,0,.19-.01.27-.04s.16-.06.23-.11l.17,1.22c-.17.08-.35.14-.55.18s-.4.06-.59.06c-.26,0-.49-.04-.69-.11s-.37-.19-.51-.34-.25-.34-.32-.57-.11-.49-.11-.79v-7.07l1.56-.18v7.07Z"/>
      <path class="cls-3" d="M135.82,22.93l-1.11-1.03c-.35.31-.76.55-1.21.72s-.97.25-1.54.25c-.44,0-.83-.05-1.18-.16s-.65-.26-.89-.46-.43-.44-.57-.72-.2-.6-.2-.95c0-.29.04-.56.12-.79s.19-.45.33-.64.3-.37.49-.53.38-.31.58-.44c-.14-.15-.28-.31-.41-.47s-.24-.34-.33-.52-.17-.37-.22-.56-.08-.4-.08-.61c0-.33.06-.63.19-.91s.31-.51.54-.7.51-.35.84-.45.69-.16,1.1-.16c.38,0,.71.05,1.02.14s.57.23.78.4.38.38.5.63.18.53.18.83-.05.57-.16.82-.25.46-.42.66-.38.38-.6.54-.45.31-.68.45l1.67,1.55c.09-.24.16-.49.22-.75s.08-.53.08-.81h1.45c-.01.46-.07.9-.18,1.33s-.27.83-.49,1.2l1.14,1.05-.96,1.1ZM131.61,19.06c-.13.1-.25.2-.36.3s-.2.2-.28.31-.14.23-.18.35-.06.26-.06.4c0,.18.03.34.1.48s.16.27.29.38.28.19.46.25.39.08.62.08c.31,0,.6-.05.86-.16s.49-.25.7-.45l-2.13-1.96ZM132.2,15.01c-.15,0-.28.03-.41.07s-.23.12-.32.2-.16.18-.21.3-.07.24-.07.38c0,.13.02.25.06.37s.09.23.15.35.14.23.23.34.19.23.31.34c.2-.12.37-.24.52-.35s.28-.22.39-.34.19-.23.24-.36.08-.27.08-.43c0-.12-.02-.24-.07-.35s-.12-.2-.2-.28-.19-.14-.31-.18-.25-.07-.39-.07Z"/>
      <path class="cls-3" d="M142.81,22.75h-1.63v-8.33h1.63v8.33Z"/>
      <path class="cls-3" d="M150.14,16.33c-.26-.21-.54-.38-.85-.49s-.62-.17-.94-.17-.62.06-.9.18-.53.3-.75.54-.38.54-.51.9-.19.78-.19,1.26c0,.45.06.85.17,1.21s.27.66.47.92.46.45.76.58.64.2,1.01.2c.21,0,.4-.02.59-.05s.36-.09.54-.16.33-.16.49-.26.31-.23.46-.37l.38,1.33c-.37.29-.78.52-1.22.68s-.93.24-1.46.24c-.58,0-1.1-.1-1.58-.29s-.88-.48-1.22-.85-.6-.81-.78-1.33-.28-1.11-.28-1.76c0-.47.05-.9.14-1.3s.23-.76.4-1.08.38-.6.62-.85.5-.45.79-.62.6-.29.93-.37.68-.12,1.03-.12c.45,0,.87.06,1.26.18s.73.31,1.03.56l-.39,1.29Z"/>
      <path class="cls-3" d="M157.51,15.8h-2.31v6.95h-1.63v-6.95h-2.32v-1.38h6.26v1.38Z"/>
    </g>
  </g>
</svg>