<?xml version="1.0" encoding="UTF-8"?>
<svg id="Laag_2" data-name="Laag 2" xmlns="http://www.w3.org/2000/svg" viewBox="0 0 221.12 243.75">
  <defs>
    <style>
      .cls-1 {
        fill: #fff;
      }

      .cls-1, .cls-2, .cls-3, .cls-4, .cls-5 {
        stroke: #000;
        stroke-miterlimit: 10;
      }

      .cls-2 {
        fill: #ccc;
      }

      .cls-3, .cls-6 {
        fill: #91002d;
      }

      .cls-4 {
        fill: #9e005d;
      }

      .cls-5 {
        fill: none;
      }

      .cls-6 {
        stroke-width: 0px;
      }
    </style>
  </defs>
  <g id="Laag_6" data-name="Laag 6">
    <polygon class="cls-2" points="97.47 74.61 104.85 74.61 104.85 97.47 97.47 96 97.47 74.61"/>
    <rect class="cls-2" x=".5" y=".5" width="220.12" height="220.12"/>
    <polygon class="cls-3" points="86.41 .5 113.33 .5 127.71 91.2 218.78 79.04 218.78 101.9 186.7 105.21 163.84 107.43 135.82 115.17 152.59 243.25 127.71 243.25 105.95 118.49 90.84 118.49 74.98 208.45 53.96 206.61 86.41 .5"/>
    <path class="cls-1" d="m.5,25.2L144.67,5.29l20.28,105.06,23.97-1.82-13.64-82.59,26.18,2.21,10.32,74.11,8.85-.74v25.44h-5.53v16.22h5.53v32.08h-21.75l-8.48-45.72h-23.97l5.16,42.03h-21.39l-6.27-33.18h-8.48v-22.12h5.9l-16.59-85.17-76.32,11.43-8.11,49.78,35.76-2.03v22.68l-39.82,4.42-8.85,49.04,49.78-2.21-1.11,21.02S4.56,199.23,3.08,199.23h-1.47l-1.11-28.39,8.85-46.46H.5v-25.44l14.75-1.47,7.74-49.78-22.49,1.11v-23.6Z"/>
    <rect class="cls-2" x="97.1" y="75.72" width="7.74" height="22.12"/>
    <polygon class="cls-4" points="84.35 13.62 80.55 37.72 118.33 32.07 114.74 9.43 84.35 13.62"/>
    <polygon class="cls-6" points="86.41 .5 113.33 .5 119.23 37.72 79.89 41.92 86.41 .5"/>
    <polyline class="cls-5" points="79.37 45.24 86.41 .5 113.33 .5 119.54 39.7"/>
  </g>
</svg>