<?xml version="1.0" encoding="utf-8"?>
<!-- Generator: Adobe Illustrator 28.0.0, SVG Export Plug-In . SVG Version: 6.00 Build 0)  -->
<svg version="1.1" id="Laag_1" xmlns="http://www.w3.org/2000/svg" xmlns:xlink="http://www.w3.org/1999/xlink" x="0px" y="0px"
	 viewBox="0 0 1280 433.5" style="enable-background:new 0 0 1280 433.5;" xml:space="preserve">
<style type="text/css">
	.st0{fill:#005F56;}
	.st1{fill:#0071BC;}
	.st2{fill:#FF00FF;}
	.st3{font-family:'DelaGothicOne-Regular';}
	.st4{font-size:71.242px;}
	.st5{fill:#FFFFFF;}
</style>
<g>
	<rect x="-2.2" y="34.5" class="st0" width="1282.2" height="268.3"/>
</g>
<path class="st1" d="M430.5,427.5L430.5,427.5c-70.3-13.4-116.2-80.1-102.5-148.9l24.8-124.6l127.3,24.3
	c70.3,13.4,116.2,80.1,102.5,148.9v0C568.9,396,500.8,440.9,430.5,427.5z"/>
<text transform="matrix(0.848 0 0 1 348.0801 280.1423)"><tspan x="0" y="0" class="st2 st3 st4">Vanaf</tspan><tspan x="-4.6" y="85.5" class="st2 st3 st4">18:OO</tspan></text>
<ellipse class="st2" cx="1132.3" cy="78.6" rx="34.7" ry="34"/>
<ellipse class="st2" cx="659.2" cy="141.8" rx="12.3" ry="12.1"/>
<ellipse class="st2" cx="974" cy="74.5" rx="65.5" ry="68.2"/>
<ellipse class="st2" cx="1177.9" cy="261.8" rx="45.6" ry="44.7"/>
<ellipse class="st2" cx="205.7" cy="250.4" rx="34" ry="33.3"/>
<ellipse class="st2" cx="198.4" cy="136.1" rx="18.1" ry="17.7"/>
<g>
	<defs>
		<path id="SVGID_1_" d="M974,16.8L974,16.8c32.5,0,58.9,25.8,58.9,57.7v0.1c0,31.9-26.4,57.7-58.9,57.7h0
			c-32.5,0-58.9-25.8-58.9-57.7v-0.1C915.1,42.6,941.5,16.8,974,16.8z"/>
	</defs>
	<clipPath id="SVGID_00000155146381357345839900000015754829622327893633_">
		<use xlink:href="#SVGID_1_"  style="overflow:visible;"/>
	</clipPath>
	<g style="clip-path:url(#SVGID_00000155146381357345839900000015754829622327893633_);">
		
			<image style="overflow:visible;" width="1262" height="1263" xlink:href="13FA8FFD910B9983.jpg"  transform="matrix(9.335972e-02 0 0 9.142891e-02 915.108 16.7564)">
		</image>
	</g>
</g>
<g>
	<defs>
		<path id="SVGID_00000181055725665122715510000006436487883585788035_" d="M1177.9,223h0.1c21.9,0,39.6,17.3,39.6,38.7v0
			c0,21.4-17.7,38.7-39.6,38.7h-0.1c-21.9,0-39.6-17.3-39.6-38.7v0C1138.3,240.4,1156,223,1177.9,223z"/>
	</defs>
	<clipPath id="SVGID_00000136409450695161744150000005939021368657746103_">
		<use xlink:href="#SVGID_00000181055725665122715510000006436487883585788035_"  style="overflow:visible;"/>
	</clipPath>
	<g transform="matrix(1 0 0 1 0 0)" style="clip-path:url(#SVGID_00000136409450695161744150000005939021368657746103_);">
		
			<image style="overflow:visible;" width="641" height="640" xlink:href="13FA8FFD910B9981.jpg"  transform="matrix(0.1785 0 0 0.1748 1138.3236 223.0047)">
		</image>
	</g>
</g>
<g>
	<path class="st5" d="M341.3,108.5c-3.2-3.1-4.8-7.2-4.8-12.3c0-5,1.6-9,4.8-12.1c3.2-3.1,8.2-4.7,15-4.7c4.6,0,8.4,0.7,11.5,2.2
		c3.1,1.5,5.4,3.5,6.8,6c1.5,2.5,2.2,5.4,2.2,8.5c0,5.1-1.7,9.3-5.1,12.4c-3.4,3.1-8.5,4.7-15.4,4.7
		C349.5,113.2,344.5,111.6,341.3,108.5z M362.3,101.2c1.3-1.2,1.9-2.9,1.9-5c0-2-0.6-3.6-1.9-4.8c-1.3-1.3-3.2-1.9-5.8-1.9
		s-4.5,0.6-5.7,1.9c-1.2,1.2-1.8,2.8-1.8,4.8c0,2.1,0.6,3.7,1.8,5c1.2,1.2,3.1,1.9,5.7,1.9S361,102.4,362.3,101.2z"/>
	<path class="st5" d="M414.1,81.6c2.1,1.5,3.7,3.5,4.8,6c1.2,2.5,1.7,5.3,1.7,8.3c0,3-0.6,5.8-1.7,8.5c-1.2,2.6-2.8,4.8-4.9,6.4
		c-2.1,1.6-4.5,2.4-7.1,2.4c-3.1,0-5.8-0.6-8-1.9c-2.2-1.3-3.9-3.3-4.9-6c0,2.3,0.1,5.9,0.2,10.9c0.2,4.9,0.2,8.3,0.2,10.3H381
		c0.2-7.4,0.4-15.1,0.4-23.2c0-8.1-0.1-15.8-0.4-23.2h11.5l1.7,7.5c1.1-2.8,2.8-4.8,5-6.1c2.2-1.3,4.9-1.9,7.9-1.9
		C409.7,79.4,412,80.1,414.1,81.6z M405.2,100.7c1.2-1.1,1.8-2.6,1.8-4.4c0-2-0.6-3.7-1.7-5c-1.1-1.3-2.6-1.9-4.5-1.9
		c-2.2,0-3.8,0.5-5,1.6c-1.1,1.1-1.7,2.8-1.7,5.3c0,1.4,0.4,2.6,1.1,3.5c0.7,0.9,1.6,1.6,2.6,2c1,0.4,2,0.6,2.9,0.6
		C402.5,102.4,404,101.8,405.2,100.7z"/>
	<path class="st5" d="M456.4,97.6H437c0.3,1.8,1.1,3.2,2.4,4.3c1.3,1.1,3,1.6,5.3,1.6c1.7,0,3.2-0.3,4.7-1c1.5-0.7,2.6-1.6,3.5-2.8
		c2.7,1.3,6.2,2.7,10.6,4.2c-1.2,2.8-3.5,5-6.7,6.7c-3.2,1.7-7.5,2.5-12.7,2.5c-6.8,0-11.8-1.6-15-4.7c-3.2-3.1-4.9-7.2-4.9-12.3
		c0-5,1.6-9,4.8-12.1c3.2-3.1,8.2-4.7,15-4.7c4.1,0,7.6,0.7,10.6,2c3,1.4,5.3,3.2,6.9,5.6c1.6,2.4,2.4,5.2,2.4,8.3
		c0,1,0,1.8-0.1,2.3H456.4z M440.1,89.5c-1.3,0.8-2.2,1.8-2.7,3.1h14.1c-0.5-1.3-1.3-2.3-2.3-3.1c-1.1-0.8-2.5-1.2-4.2-1.2
		C443,88.4,441.3,88.7,440.1,89.5z"/>
	<path class="st5" d="M491.4,112.6c0.2-5.9,0.4-11.2,0.4-16.2c0-1.8-0.4-3.1-1.3-4.2c-0.9-1-1.9-1.6-3.3-1.6s-2.4,0.6-3.3,1.8
		c-0.9,1.2-1.5,2.8-1.6,4.8c-0.1,3-0.1,5.2-0.1,6.4c0,2.7,0.1,5.7,0.2,8.9h-14.3c0.3-5.7,0.5-11.1,0.5-16.2c0-5.1-0.2-10.5-0.5-16.4
		c2.6,0.1,4.6,0.2,6,0.2c1.5,0,3.5-0.1,6-0.2l1.7,8.8c0.9-3.2,2.3-5.5,4.3-7.1c2-1.5,4.2-2.3,6.8-2.3c2.4,0,4.5,0.5,6.2,1.6
		c1.8,1.1,3.1,2.5,4,4.3s1.3,3.8,1.3,6v8.6c0,5.3,0.1,9.5,0.3,12.7H491.4z"/>
	<path class="st5" d="M548.3,89.3c0,8,0.1,15.7,0.4,23.2h-13.5l0.2-7.2c-1.2,2.7-2.8,4.6-5,5.9c-2.2,1.3-4.8,1.9-7.8,1.9
		c-2.6,0-4.9-0.7-7-2.2c-2.1-1.5-3.7-3.5-4.8-6c-1.2-2.5-1.7-5.3-1.7-8.3c0-3,0.6-5.8,1.7-8.5c1.2-2.6,2.8-4.8,4.9-6.4
		c2.1-1.6,4.5-2.4,7.1-2.4c3.1,0,5.8,0.6,8,1.9c2.2,1.3,3.9,3.3,4.9,6c0-2.3-0.1-5.9-0.2-10.9c-0.2-4.9-0.2-8.3-0.2-10.3h13.5
		C548.5,73.5,548.3,81.2,548.3,89.3z M533.6,101.5c1.2-1.1,1.9-2.8,1.9-5.2c0-2.1-0.6-3.7-1.9-4.7c-1.2-1-2.8-1.5-4.7-1.5
		c-1.8,0-3.3,0.6-4.5,1.7c-1.2,1.1-1.8,2.6-1.8,4.4c0,2,0.6,3.7,1.7,5c1.1,1.3,2.6,1.9,4.5,1.9C530.8,103.1,532.4,102.6,533.6,101.5
		z"/>
	<path class="st5" d="M585.1,97.6h-19.5c0.3,1.8,1.1,3.2,2.4,4.3c1.3,1.1,3,1.6,5.3,1.6c1.7,0,3.2-0.3,4.7-1
		c1.5-0.7,2.6-1.6,3.5-2.8c2.7,1.3,6.2,2.7,10.6,4.2c-1.2,2.8-3.5,5-6.7,6.7c-3.2,1.7-7.5,2.5-12.7,2.5c-6.8,0-11.8-1.6-15-4.7
		c-3.2-3.1-4.9-7.2-4.9-12.3c0-5,1.6-9,4.8-12.1s8.2-4.7,15-4.7c4.1,0,7.6,0.7,10.6,2c3,1.4,5.3,3.2,6.9,5.6
		c1.6,2.4,2.4,5.2,2.4,8.3c0,1,0,1.8-0.1,2.3H585.1z M568.7,89.5c-1.3,0.8-2.2,1.8-2.7,3.1h14.1c-0.5-1.3-1.3-2.3-2.3-3.1
		s-2.5-1.2-4.2-1.2C571.6,88.4,570,88.7,568.7,89.5z"/>
	<path class="st5" d="M633.1,96.2c0,5.9,0.1,11.3,0.4,16.4c-2.5-0.1-4.6-0.2-6-0.2c-1.4,0-3.4,0.1-6,0.2l-1.7-8.8
		c-0.9,3.2-2.3,5.5-4.3,7.1c-2,1.5-4.2,2.3-6.8,2.3c-2.4,0-4.5-0.5-6.2-1.6s-3.1-2.5-4-4.3c-0.9-1.8-1.3-3.8-1.3-6v-8.6
		c0-5.3-0.1-9.5-0.3-12.7h13.4c-0.2,5.9-0.4,11.6-0.4,17.4c0,1.8,0.4,3.1,1.3,4.2c0.9,1,1.9,1.6,3.3,1.6c1.2,0,2.3-0.5,3.3-1.6
		c0.9-1.1,1.5-2.6,1.7-4.5v-1.4c0.1-3.1,0.1-5.3,0.1-6.4c0-2.7-0.1-5.8-0.2-9.1h14.3C633.2,85,633.1,90.4,633.1,96.2z"/>
	<path class="st5" d="M652.1,88.8c1.7-6,5.8-9,12.5-9c1.2,0,2.3,0.1,3.3,0.2L666,93.4c-2.9-1.1-5.2-1.6-7-1.6c-2.3,0-3.9,0.7-5,2
		c-1.1,1.4-1.6,3.2-1.6,5.4v-0.1l-0.1,3.9c0,2.8,0.1,6,0.2,9.4h-14.3c0.3-5.7,0.5-11.1,0.5-16.2c0-5.1-0.2-10.5-0.5-16.4
		c2.6,0.1,4.6,0.2,6,0.2c1.5,0,3.5-0.1,6-0.2L652.1,88.8z"/>
	<path class="st5" d="M709.6,89.3c0,8,0.1,15.7,0.4,23.2h-13.5l0.2-7.2c-1.2,2.7-2.8,4.6-5,5.9c-2.2,1.3-4.8,1.9-7.8,1.9
		c-2.6,0-4.9-0.7-7-2.2c-2.1-1.5-3.7-3.5-4.8-6c-1.2-2.5-1.7-5.3-1.7-8.3c0-3,0.6-5.8,1.7-8.5c1.2-2.6,2.8-4.8,4.9-6.4
		c2.1-1.6,4.5-2.4,7.1-2.4c3.1,0,5.8,0.6,8,1.9c2.2,1.3,3.9,3.3,4.9,6c0-2.3-0.1-5.9-0.2-10.9c-0.2-4.9-0.2-8.3-0.2-10.3H710
		C709.8,73.5,709.6,81.2,709.6,89.3z M694.9,101.5c1.2-1.1,1.9-2.8,1.9-5.2c0-2.1-0.6-3.7-1.9-4.7c-1.2-1-2.8-1.5-4.7-1.5
		c-1.8,0-3.3,0.6-4.5,1.7c-1.2,1.1-1.8,2.6-1.8,4.4c0,2,0.6,3.7,1.7,5c1.1,1.3,2.6,1.9,4.5,1.9C692.1,103.1,693.7,102.6,694.9,101.5
		z"/>
	<path class="st5" d="M753.1,102.6c0,1.4,0.2,2.3,0.5,2.9c0.3,0.6,1,1,1.9,1.2l-0.2,5.6c-1.3,0.2-2.4,0.3-3.3,0.4
		c-0.9,0.1-2.2,0.1-3.7,0.1c-3.4,0-5.7-0.8-6.8-2.3c-1.1-1.5-1.7-3.5-1.7-5.9v-1.5c-1.2,3.3-2.8,5.7-5,7.3c-2.2,1.6-5,2.4-8.5,2.4
		c-4,0-7-0.8-9-2.4c-2-1.6-3-4-3-7.1c0-2.6,0.9-4.6,2.6-6.1c1.7-1.5,4.4-2.5,7.9-3c-3-2.1-6.1-4-9.1-5.6c2.4-3,5.1-5.3,8.2-6.9
		c3.1-1.6,6.8-2.4,11.2-2.4c6.1,0,10.7,1.3,13.6,4c3,2.6,4.4,6.7,4.4,12.2V102.6z M730.8,90.9c-1.6,0.7-2.9,1.7-4.2,3
		c2.4-0.3,5.4-0.4,9-0.4c1.5,0,2.5-0.2,3.1-0.5c0.6-0.4,0.9-0.8,0.9-1.4c0-0.5-0.3-0.9-0.9-1.2c-0.6-0.3-1.4-0.5-2.5-0.5
		C734.2,89.9,732.4,90.2,730.8,90.9z M736,101.8c1.8-0.9,3-2,3.7-3.4v-1.6c-1,0.5-2,0.8-3.2,1.1c-1.2,0.3-2.5,0.5-4.2,0.7l-2.2,0.4
		c-2.2,0.4-3.3,1.2-3.3,2.3c0,1.2,1,1.7,3.1,1.7C732.2,103.1,734.2,102.7,736,101.8z"/>
	<path class="st5" d="M787.2,80h11.5c-0.2,6.5-0.3,15.8-0.3,27.8c0,4.7-0.9,8.6-2.8,11.6c-1.9,3-4.4,5.2-7.5,6.6s-6.6,2.1-10.4,2.1
		c-3.8,0-7.2-0.5-10.2-1.6c-3-1.1-5.3-2.6-6.8-4.4l2.7-9.1c2.2,1.2,4.2,2.1,6.1,2.7c1.9,0.5,3.9,0.8,6,0.8c6.8,0,10.2-2.9,10.2-8.6
		c0-0.8,0-1.4,0.1-1.8c0-0.2,0-0.6,0-1c0-0.4,0-0.9,0-1.6c-2,5.7-6.3,8.5-12.9,8.5c-2.7,0-5-0.7-7.1-2.1c-2.1-1.4-3.7-3.4-4.9-5.8
		c-1.2-2.4-1.7-5.1-1.7-8.1c0-3,0.6-5.8,1.7-8.3c1.2-2.5,2.8-4.5,4.8-6c2.1-1.5,4.4-2.2,7-2.2c6.7,0,11.1,2.4,13.1,7.1L787.2,80z
		 M781.8,101.8c1-0.4,1.9-1.1,2.6-2c0.7-0.9,1.1-2.1,1.1-3.5c0-2.5-0.6-4.2-1.7-5.3c-1.1-1.1-2.8-1.6-5-1.6c-1.9,0-3.4,0.6-4.5,1.9
		c-1.1,1.3-1.7,2.9-1.7,5c0,1.8,0.6,3.3,1.8,4.4c1.2,1.1,2.7,1.7,4.5,1.7C779.9,102.4,780.8,102.2,781.8,101.8z"/>
</g>
<g>
	<path class="st5" d="M728.2,231.4c1,0.9,1.7,2,2.2,3.1c0.5,1.1,0.7,2.2,0.7,3.1c0,3.8-1.7,6.6-5.1,8.4c-3.4,1.8-8.1,2.7-14.2,2.7
		c-6.1,0-10.8-0.9-14.2-2.7c-3.4-1.8-5.1-4.6-5.1-8.4c0-1.5,0.6-3.1,1.7-4.8c1.1-1.6,2.7-2.8,4.7-3.6c-1.8-0.8-3.1-1.8-4-2.8
		c-0.9-1-1.3-2.4-1.3-4.1c0-2,0.7-3.8,2.1-5.3c1.4-1.6,3.5-2.8,6.2-3.7c2.8-0.9,6.1-1.3,10-1.3c3.9,0,7.2,0.4,9.9,1.3
		c2.7,0.9,4.8,2.1,6.2,3.7c1.4,1.6,2.1,3.3,2.1,5.3c0,1.7-0.5,3.1-1.4,4.1c-0.9,1-2.3,1.9-4.2,2.8
		C726,229.7,727.2,230.4,728.2,231.4z M716.7,225.4c1.2-0.6,1.9-1.5,1.9-2.6c0-1.1-0.6-1.9-1.9-2.5s-2.8-0.9-4.6-0.9
		c-1.9,0-3.4,0.3-4.7,0.9c-1.3,0.6-1.9,1.5-1.9,2.5c0,1.1,0.6,2,1.9,2.6c1.3,0.6,2.8,0.9,4.7,0.9S715.4,226,716.7,225.4z
		 M716.7,238.9c1.2-0.6,1.9-1.5,1.9-2.6s-0.6-1.9-1.9-2.5s-2.8-0.9-4.6-0.9c-1.9,0-3.4,0.3-4.7,0.9c-1.3,0.6-1.9,1.5-1.9,2.5
		c0,1.1,0.6,2,1.9,2.6c1.3,0.6,2.8,0.9,4.7,0.9S715.4,239.6,716.7,238.9z"/>
	<path class="st5" d="M782.4,222.1h-26.3v5.1c1.6,0,4.1,0,7.4,0c5.7,0,11.5-0.1,17.3-0.3v9.5c-5.9-0.2-12.1-0.3-18.6-0.3
		c-2.7,0-4.8,0-6.1,0v12h-11.4c0.3-6.3,0.4-12.1,0.4-17.6s-0.1-11.3-0.4-17.6h37.7V222.1z"/>
	<path class="st5" d="M811.9,236.1h-15.8c0.3,1.4,0.9,2.6,1.9,3.5c1,0.9,2.5,1.3,4.3,1.3c1.4,0,2.6-0.3,3.8-0.8
		c1.2-0.5,2.1-1.3,2.9-2.2c2.2,1.1,5,2.2,8.6,3.4c-1,2.3-2.8,4.1-5.4,5.4s-6.1,2-10.3,2c-5.5,0-9.5-1.3-12.2-3.8
		c-2.6-2.5-3.9-5.9-3.9-10c0-4,1.3-7.3,3.9-9.8c2.6-2.5,6.7-3.8,12.2-3.8c3.3,0,6.1,0.5,8.6,1.6c2.4,1.1,4.3,2.6,5.6,4.6
		s1.9,4.2,1.9,6.7c0,0.8,0,1.5-0.1,1.9H811.9z M798.6,229.5c-1,0.6-1.8,1.5-2.2,2.5h11.4c-0.4-1-1-1.9-1.9-2.5s-2-0.9-3.4-0.9
		C801,228.6,799.6,228.9,798.6,229.5z"/>
	<path class="st5" d="M848.1,223.2c1.7,1.3,3,3,3.9,5.2s1.4,4.4,1.4,6.8c0,2.5-0.5,4.7-1.4,6.8s-2.2,3.7-3.9,4.9
		c-1.7,1.2-3.6,1.8-5.7,1.8c-2.5,0-4.6-0.5-6.4-1.6s-3.2-2.7-4.1-5l-1.4,6h-9.3c0.2-6.1,0.3-12.3,0.3-18.8c0-6.5-0.1-12.8-0.3-18.8
		h10.9l-0.1,6c-0.2,4.2-0.2,7.9-0.2,11.2c0.9-2.2,2.2-3.8,4-4.9c1.8-1,3.9-1.6,6.5-1.6C844.5,221.3,846.4,221.9,848.1,223.2z
		 M841.1,239c0.9-1,1.4-2.4,1.4-4c0-1.5-0.5-2.7-1.5-3.6c-1-0.9-2.2-1.4-3.7-1.4c-0.7,0-1.5,0.2-2.3,0.5c-0.8,0.3-1.5,0.9-2.1,1.6
		c-0.6,0.8-0.9,1.7-0.9,2.8c0,2,0.5,3.4,1.4,4.3c0.9,0.9,2.2,1.3,4,1.3C839,240.5,840.2,240,841.1,239z"/>
	<path class="st5" d="M868.6,228.9c1.4-4.9,4.7-7.3,10.1-7.3c0.9,0,1.8,0.1,2.7,0.2l-1.5,10.8c-2.3-0.9-4.2-1.3-5.7-1.3
		c-1.8,0-3.2,0.5-4.1,1.6c-0.9,1.1-1.3,2.6-1.3,4.4v0l0,3.2c0,2.3,0.1,4.8,0.2,7.6h-11.6c0.3-4.6,0.4-9,0.4-13.2s-0.1-8.5-0.4-13.3
		c2.1,0.1,3.8,0.1,4.9,0.1c1.2,0,2.8,0,4.9-0.1L868.6,228.9z"/>
	<path class="st5" d="M913.2,234.9c0,4.7,0.1,9.2,0.3,13.3c-2.1-0.1-3.7-0.1-4.9-0.1c-1.1,0-2.8,0-4.9,0.1l-1.4-7.1
		c-0.7,2.6-1.9,4.5-3.5,5.7c-1.6,1.2-3.4,1.9-5.5,1.9c-1.9,0-3.6-0.4-5-1.3c-1.4-0.9-2.5-2-3.2-3.5s-1.1-3.1-1.1-4.9v-7
		c0-4.3-0.1-7.7-0.2-10.3h10.9c-0.2,4.7-0.3,9.4-0.3,14.1c0,1.4,0.3,2.5,1,3.4c0.7,0.8,1.6,1.3,2.6,1.3c1,0,1.9-0.4,2.6-1.3
		c0.8-0.9,1.2-2.1,1.4-3.7v-1.1c0.1-2.5,0.1-4.3,0.1-5.2c0-2.2-0.1-4.7-0.2-7.4h11.6C913.3,225.8,913.2,230.2,913.2,234.9z"/>
	<path class="st5" d="M948.5,240.1c0,1.1,0.1,1.9,0.4,2.3c0.3,0.5,0.8,0.8,1.5,1l-0.2,4.5c-1,0.2-1.9,0.3-2.7,0.3
		c-0.8,0.1-1.8,0.1-3,0.1c-2.8,0-4.6-0.6-5.5-1.9c-0.9-1.2-1.4-2.8-1.4-4.8v-1.2c-0.9,2.6-2.3,4.6-4.1,5.9c-1.8,1.3-4.1,1.9-6.8,1.9
		c-3.2,0-5.7-0.6-7.3-1.9c-1.6-1.3-2.4-3.2-2.4-5.8c0-2.1,0.7-3.7,2.1-4.9c1.4-1.2,3.5-2,6.4-2.5c-2.5-1.7-4.9-3.3-7.4-4.5
		c1.9-2.4,4.1-4.3,6.6-5.6c2.5-1.3,5.5-1.9,9-1.9c5,0,8.7,1.1,11.1,3.2c2.4,2.1,3.6,5.4,3.6,9.9V240.1z M930.5,230.6
		c-1.3,0.5-2.4,1.4-3.4,2.5c1.9-0.2,4.4-0.3,7.3-0.3c1.2,0,2-0.1,2.5-0.4c0.5-0.3,0.7-0.7,0.7-1.1c0-0.4-0.2-0.7-0.7-1
		c-0.5-0.3-1.2-0.4-2-0.4C933.2,229.8,931.7,230,930.5,230.6z M934.6,239.5c1.5-0.7,2.5-1.6,3-2.7v-1.3c-0.8,0.4-1.6,0.7-2.6,0.9
		c-0.9,0.2-2.1,0.4-3.4,0.6l-1.7,0.3c-1.8,0.4-2.7,1-2.7,1.8c0,0.9,0.8,1.4,2.5,1.4C931.5,240.5,933.2,240.2,934.6,239.5z"/>
	<path class="st5" d="M964.5,228.9c1.4-4.9,4.7-7.3,10.1-7.3c0.9,0,1.8,0.1,2.7,0.2l-1.5,10.8c-2.3-0.9-4.2-1.3-5.7-1.3
		c-1.8,0-3.2,0.5-4.1,1.6c-0.9,1.1-1.3,2.6-1.3,4.4v0l0,3.2c0,2.3,0.1,4.8,0.2,7.6h-11.6c0.3-4.6,0.4-9,0.4-13.2s-0.1-8.5-0.4-13.3
		c2.1,0.1,3.8,0.1,4.9,0.1c1.2,0,2.8,0,4.9-0.1L964.5,228.9z"/>
	<path class="st5" d="M983.2,217.4c-1-1-1.5-2.3-1.5-3.9c0-1.6,0.5-2.9,1.5-3.9s2.5-1.5,4.5-1.5c1.9,0,3.4,0.5,4.5,1.6
		s1.5,2.3,1.5,3.9c0,1.6-0.5,2.9-1.5,3.9c-1,1-2.5,1.5-4.5,1.5C985.7,218.9,984.2,218.4,983.2,217.4z M982.1,248.2
		c0.2-5.2,0.3-9.5,0.3-12.9c0-4-0.1-8.5-0.4-13.5h11.6c-0.3,4.8-0.4,9.3-0.4,13.5c0,3.5,0.1,7.8,0.3,12.9H982.1z"/>
</g>
</svg>
