<?xml version="1.0" encoding="UTF-8"?>
<svg id="Layer_2" data-name="Layer 2" xmlns="http://www.w3.org/2000/svg" viewBox="0 0 275 275">
  <defs>
    <style>
      .cls-1 {
        fill: #0071bc;
      }

      .cls-1, .cls-2 {
        stroke-width: 0px;
      }

      .cls-2 {
        fill: #005f56;
      }

      .cls-3 {
        fill: #fff;
        stroke: #0071bc;
        stroke-miterlimit: 10;
        stroke-width: 10px;
      }
    </style>
  </defs>
  <g id="Layer_1-2" data-name="Layer 1">
    <path class="cls-3" d="M78.11,5h191.89v191.89c0,40.35-32.76,73.11-73.11,73.11H5V78.11C5,37.76,37.76,5,78.11,5Z"/>
    <path class="cls-2" d="M153.48,134.78l5.66-17.67h-93.93l-.46,1.44-29.44,91.54h18.03l10.28-24.26,10.54,24.26h55.03l5.57-17.67h-60.39l7.57-23.42h56.04l5.73-17.67h-56.07l5.35-16.55h60.47Z"/>
    <polygon class="cls-1" points="104.54 210.15 74.2 210.15 74.17 210.08 63.63 185.82 53.34 210.08 53.32 210.15 25.54 210.15 64.54 118.07 64.75 118.54 86.66 169 96.84 192.41 104.51 210.08 104.54 210.15"/>
    <path class="cls-2" d="M248.7,159.53c0,.94-.12,2.16-.35,3.66-.23,1.5-.61,2.99-1.13,4.49l-14.67,43.14h-31.72l11.21-32.87c.81-2.52,1.45-4.64,1.91-6.38.46-1.73.7-3.29.7-4.66,0-2.64-.97-4.53-2.92-5.7-1.94-1.16-5.47-1.74-10.57-1.74-2.49,0-5.37.36-8.61,1.09-3.25.73-6.87,1.82-10.88,3.28l-15.97,46.98h-31.52l31.21-91.84h31.52l-11.17,32.87c6.39-2.87,12.25-5.11,17.59-6.73,5.34-1.61,11.2-2.42,17.59-2.42,8.88,0,15.73,1.47,20.55,4.4,4.82,2.93,7.23,7.07,7.23,12.42Z"/>
    <g>
      <path class="cls-1" d="M101.41,65.81l-1.67,7.47c-2.59-.68-5.14-1.03-7.67-1.03-3.73,0-7.07,1.04-10.03,3.13-2.96,2.08-5.26,4.77-6.9,8.06-1.64,3.29-2.46,6.69-2.46,10.22,0,2.43.62,4.3,1.85,5.62,1.23,1.32,2.9,1.98,5.01,1.98,1.59,0,2.92-.22,3.97-.65l1.76-8.84h-5.01l1.4-6.81h17.09l-4.06,20.07c-2.77,1.22-5.43,2.14-7.98,2.75-2.56.61-5.19.92-7.89.92-5.92,0-10.55-1.37-13.87-4.11-3.32-2.74-4.98-6.38-4.98-10.92,0-4.92,1.26-9.56,3.79-13.94s6.25-7.92,11.16-10.64c4.91-2.72,10.77-4.08,17.56-4.08,2.59,0,5.56.27,8.93.81Z"/>
      <path class="cls-1" d="M144.75,81.86c0,5.1-.94,9.69-2.82,13.77-1.88,4.08-4.58,7.27-8.1,9.58-3.52,2.31-7.64,3.47-12.36,3.47-5.44,0-9.65-1.52-12.63-4.57-2.98-3.05-4.46-7.14-4.46-12.29,0-4.65.89-9.02,2.68-13.11,1.79-4.1,4.4-7.4,7.85-9.92,3.44-2.52,7.54-3.78,12.29-3.78,3.61,0,6.73.7,9.36,2.1,2.63,1.4,4.65,3.37,6.07,5.91,1.41,2.54,2.12,5.49,2.12,8.85ZM121.93,101.12c1.83,0,3.51-.87,5.03-2.61,1.52-1.74,2.72-4.09,3.61-7.05.89-2.96,1.33-6.18,1.33-9.66,0-6.16-1.73-9.24-5.19-9.24-1.59,0-3.13.86-4.6,2.58-1.47,1.72-2.66,4.07-3.56,7.05-.9,2.98-1.35,6.25-1.35,9.82,0,3.01.42,5.28,1.26,6.81.84,1.54,2,2.3,3.47,2.3Z"/>
      <path class="cls-1" d="M153.32,108.68c-1.95,0-3.66-.49-5.12-1.46-1.46-.97-2.19-2.16-2.19-3.55s.73-2.55,2.19-3.55c1.46-1,3.16-1.49,5.12-1.49s3.79.5,5.23,1.49c1.44,1,2.16,2.18,2.16,3.55s-.71,2.52-2.12,3.52c-1.41,1-3.17,1.49-5.28,1.49ZM156.48,94.24h-2.21c-.63-.73-1.19-2.6-1.69-5.62s-.74-5.76-.74-8.23c0-5.68.83-9.65,2.5-11.9,1.67-2.25,3.98-3.38,6.92-3.38,1.98,0,3.48.46,4.49,1.37,1.01.91,1.51,2.2,1.51,3.86,0,1.78-.66,4.42-1.98,7.92-1.32,3.5-2.86,6.83-4.6,10-1.74,3.17-3.14,5.16-4.19,5.97Z"/>
    </g>
  </g>
</svg>