<?xml version="1.0" encoding="UTF-8"?>
<svg id="Layer_2" data-name="Layer 2" xmlns="http://www.w3.org/2000/svg" viewBox="0 0 116.48 82.56">
  <defs>
    <style>
      .cls-1 {
        fill: #b3b3b3;
        stroke: #b3b3b3;
        stroke-miterlimit: 10;
        stroke-width: .75px;
      }
    </style>
  </defs>
  <g id="Layer_1-2" data-name="Layer 1">
    <g id="layer2">
      <path id="rect1021" class="cls-1" d="M70.92.38c-3.42,0-6.37,1.57-8.55,3.76s-3.8,5.13-3.8,8.55c0,5.48,2.97,9.8,6.4,13.13,3.44,3.34,7.49,6.19,11.37,9.73,1.57,1.44,3.98,1.44,5.55,0,3.88-3.55,7.96-6.39,11.4-9.73,3.44-3.34,6.36-7.66,6.36-13.13,0-3.42-1.57-6.37-3.76-8.55s-5.13-3.76-8.55-3.76c-2.05,0-4.13-.06-6.19,1.15-.81.47-1.41,1.41-2.03,2.01-.62-.6-1.22-1.53-2.03-2.01-2.06-1.21-4.13-1.15-6.19-1.15ZM70.92,8.24c2.05,0,2.03.03,2.03.03,0,0,1,.93,3.06,3.34,1.47,1.73,4.07,1.93,5.79.46.16-.14.32-.29.46-.46,2.05-2.41,3.07-3.34,3.07-3.34s-.02-.03,2.03-.03c.68,0,1.83.47,2.73,1.36.89.89,1.36,2.04,1.36,2.73,0,2.74-1.16,4.61-3.88,7.25-2.05,1.99-5.29,4.54-8.42,7.18-3.14-2.64-6.38-5.19-8.43-7.18-2.72-2.65-3.92-4.51-3.92-7.25,0-.68.48-1.83,1.37-2.73.89-.9,2.08-1.36,2.76-1.36ZM4.09,32.89c-2.11.21-3.72,1.99-3.71,4.11v41.08c0,2.27,1.84,4.1,4.11,4.11h16.5c2.28,0,4.13-1.83,4.14-4.11h44.88l1.45-.27,32.04-12.26c8-2.53,12.61-8.95,12.61-15.22,0-3.14-1.4-6.48-4.33-8.34s-6.77-1.96-10.77-.7c-.07.02-.14.04-.22.06l-31.53,12.08h-6.25c.28-1.59.9-3.12.63-4.76-.45-2.81-1.72-5.68-4.06-7.94-2.34-2.26-5.78-3.73-9.73-3.73h-24.72c0-2.28-1.86-4.12-4.14-4.11H4.48c-.13,0-.26,0-.39,0ZM8.59,41.11h8.22v32.86h-8.22v-32.86ZM25.02,45.21h24.09c2.09,0,3.17.61,4.02,1.43.85.82,1.43,2.04,1.64,3.33.21,1.3-.02,2.58-.3,3.15-.12.24-.12.28-.1.3h-16.33c-2.27.05-4.07,1.93-4.02,4.2.05,2.2,1.82,3.97,4.02,4.02h31.26l1.45-.27,32.04-12.26c2.5-.79,3.56-.39,3.88-.18.32.2.52.43.52,1.4,0,1.94-1.89,5.82-6.88,7.4-.07.02-.15.04-.22.06l-31.53,12.07H25.02v-24.65Z"/>
    </g>
  </g>
</svg>