<?xml version="1.0" encoding="UTF-8"?>
<svg id="Layer_2" data-name="Layer 2" xmlns="http://www.w3.org/2000/svg" viewBox="0 0 80.3 109.04">
  <defs>
    <style>
      .cls-1 {
        fill: #b3b3b3;
        stroke: #b3b3b3;
        stroke-miterlimit: 10;
        stroke-width: 4px;
      }
    </style>
  </defs>
  <g id="Layer_1-2" data-name="Layer 1">
    <g id="StPatrick_s-Outline" data-name="StPatrick s-Outline">
      <g id="clover">
        <path class="cls-1" d="M10.66,40.15c-15.26,6.85-8.13,24.65,4.36,25.13.48,12.16,17.43,19.3,24.62,5.41,1.8,11.3-.47,20.45-6.53,26.04-6.06,5.58,3.16,14.38,8.55,8.18,5.97-6.87,8.39-16.19,7.05-27.06,7.59,2.2,16.19-3.88,16.56-12.57,12.45-.48,19.66-18.27,4.37-25.13,15.26-6.85,8.12-24.65-4.36-25.13-.48-12.45-18.27-19.65-25.13-4.36C33.3-4.6,15.5,2.53,15.02,15.02c-12.45.48-19.65,18.27-4.36,25.13ZM17.39,64.15c.03-.66-.47-1.21-1.13-1.24-.04,0-.08,0-.12,0-11.2.59-18.77-16.31-2.05-21.52,7.14,2.02,16.02,1.6,24.61.21-1.64,10.11-1.57,18.37.21,24.62-5.21,16.72-22.11,9.12-21.52-2.06h0ZM39.87,103.36c-3.25,3.74-8.75-1.57-5.15-4.89,6.09-5.62,8.72-14.37,7.66-25.08,1.04,1.36,2.32,2.5,3.79,3.37,1.16,7.66.93,18.29-6.3,26.6ZM62.9,16.15c-.03.65.47,1.21,1.12,1.24.04,0,.08,0,.12,0,11.17-.59,18.8,16.3,2.05,21.52-6.27-1.77-14.53-1.84-24.61-.21,1.64-10.1,1.57-18.35-.21-24.61,5.21-16.71,22.11-9.15,21.52,2.05ZM65.89,41.29c17.18,5.1,9.48,22.21-1.74,21.62-.65-.03-1.21.47-1.24,1.12,0,.04,0,.08,0,.12.57,10.82-15.07,18.17-20.88,3.86-2.49-6.14-2.79-15.41-.85-26.83,10.28-1.75,18.59-1.71,24.72.11h0ZM16.15,17.39c.65.03,1.21-.47,1.24-1.12,0-.04,0-.08,0-.12-.8-15.11,29.52-23.01,21.73,22.98C-6.77,46.92.99,16.59,16.15,17.39Z"/>
      </g>
    </g>
  </g>
</svg>