<?xml version="1.0" encoding="UTF-8"?>
<svg id="Layer_2" data-name="Layer 2" xmlns="http://www.w3.org/2000/svg" viewBox="0 0 85.89 80.25">
  <defs>
    <style>
      .cls-1 {
        fill: none;
        stroke: #b3b3b3;
        stroke-linecap: round;
        stroke-linejoin: round;
        stroke-width: 7px;
      }
    </style>
  </defs>
  <g id="Layer_1-2" data-name="Layer 1">
    <g>
      <path class="cls-1" d="M53.25,3.5s-4.01,1.41-10.31,1.41-10.31-1.41-10.31-1.41c-.63,0-1.26.11-1.86.32L3.5,13.36l2.93,15.5,8.61.97c2.19.25,3.82,2.13,3.75,4.33l-1.2,42.59h50.71l-1.2-42.59c-.07-2.2,1.56-4.08,3.75-4.33l8.61-.97,2.93-15.5L55.12,3.82c-.6-.21-1.23-.32-1.86-.32Z"/>
      <path class="cls-1" d="M56.56,4.34c-2,7.52-9.72,11.99-17.24,9.99-4.88-1.3-8.69-5.11-9.99-9.99"/>
    </g>
  </g>
</svg>