<?xml version="1.0" encoding="UTF-8"?>
<svg id="Layer_2" data-name="Layer 2" xmlns="http://www.w3.org/2000/svg" viewBox="0 0 88.5 88.53">
  <defs>
    <style>
      .cls-1 {
        fill: #b3b3b3;
        fill-rule: evenodd;
        stroke: #b3b3b3;
        stroke-miterlimit: 10;
        stroke-width: .5px;
      }
    </style>
  </defs>
  <g id="Layer_1-2" data-name="Layer 1">
    <g>
      <path class="cls-1" d="M85.41,42.87H3.09c-1.57,0-2.84,1.27-2.84,2.84v39.73c0,1.57,1.27,2.84,2.84,2.84h82.32c1.57,0,2.84-1.27,2.84-2.84v-39.73c0-1.57-1.27-2.84-2.84-2.84ZM82.53,48.5v34.06H5.88v-34.06h76.65Z"/>
      <path class="cls-1" d="M78.26,7.36h-4.26c-1.34,0-2.54.92-2.82,2.23-.39,1.85,1.01,3.49,2.79,3.49h4.29v1.36h-4.26c-1.34,0-2.54.92-2.82,2.23-.39,1.85,1.01,3.49,2.79,3.49h4.29v1.36h-4.26c-1.34,0-2.54.92-2.82,2.23-.39,1.85,1.01,3.49,2.79,3.49h4.29v1.36h-4.26c-1.34,0-2.54.92-2.82,2.23-.39,1.85,1.01,3.49,2.79,3.49h4.29v4.2c0,1.4.99,2.62,2.37,2.85,1.8.3,3.36-1.07,3.36-2.8V3.12c0-1.57-1.27-2.84-2.84-2.84h-21.31c-1.56,0-2.82,1.26-2.82,2.82v35.45c0,1.54,1.2,2.84,2.74,2.88s2.89-1.24,2.89-2.84V5.91h15.62v1.45Z"/>
      <path class="cls-1" d="M31.85,17.35c-.22.4-.35.85-.36,1.33h0s0,0,0,0v19.81c0,1.4.99,2.62,2.37,2.85,1.8.3,3.36-1.07,3.36-2.8v-17.03h2.72v16.97c0,1.4.99,2.62,2.37,2.85,1.8.3,3.36-1.07,3.36-2.8v-17.03h2.82v16.97c0,1.4.99,2.62,2.37,2.85,1.8.3,3.36-1.07,3.36-2.8v-19.87c0-.48-.14-.94-.36-1.33L45.33,1.77c-.5-.91-1.45-1.48-2.49-1.48s-1.99.57-2.49,1.48l-8.5,15.59ZM39.09,15.9h7.47l-3.73-6.84-3.73,6.84Z"/>
      <path class="cls-1" d="M6.24,17.39c-.22.4-.35.85-.36,1.34v-.05,19.83c0,1.4.99,2.62,2.37,2.85,1.8.3,3.36-1.07,3.36-2.8v-17.03h2.82v16.97c0,1.4.99,2.62,2.37,2.85,1.8.3,3.36-1.07,3.36-2.8v-17.03h2.82v16.97c0,1.4.99,2.62,2.37,2.85,1.8.3,3.36-1.07,3.36-2.8v-19.83c0-.48-.14-.94-.36-1.34L19.78,1.73c-.5-.91-1.46-1.48-2.5-1.48s-2,.57-2.5,1.48l-8.54,15.65ZM13.55,15.9h7.47l-3.73-6.84-3.73,6.84Z"/>
    </g>
  </g>
</svg>