<?xml version="1.0" encoding="UTF-8"?>
<svg id="Layer_2" data-name="Layer 2" xmlns="http://www.w3.org/2000/svg" viewBox="0 0 113.52 94.88">
  <defs>
    <style>
      .cls-1 {
        fill: #b3b3b3;
        stroke: #b3b3b3;
        stroke-miterlimit: 10;
      }
    </style>
  </defs>
  <g id="Layer_1-2" data-name="Layer 1">
    <g>
      <path class="cls-1" d="M113.02,38.34c-.41,2.96-1.05,5.75-2.08,8.45-1.52,4-3.73,7.56-6.63,10.73-1.86,2.02-3.76,3.99-5.77,5.85-.55.5-.85,1.27-1.31,1.88-1.46,1.96-3.41,3.03-5.85,3.15-.63.03-.88.21-.94.89-.34,3.86-3.19,7.43-7.6,7.7-.6.04-.89.3-.99.93-.27,1.71-.78,3.31-1.91,4.7-1.36,1.67-3.1,2.64-5.2,2.92-1.05.14-1.64.3-1.71,1.65-.19,3.71-4.02,7.05-7.73,7.19-2.96.11-5.31-1.04-7.33-3.05-1.08-1.08-2.14-2.18-3.23-3.3-1.65,1.4-2.88,3.02-4.6,4.1-3.58,2.25-9.28,1.25-11.56-2.85-.66-1.18-1.23-2.42-1.23-3.81,0-.66-.35-.74-.9-.8-4.12-.43-7.35-3.35-7.67-7.75-.05-.63-.29-.76-.87-.82-3.88-.4-6.87-2.84-7.52-6.64-.29-1.68-.96-2-2.4-2.21-2.96-.44-5.86-3.37-6.28-6.41-.18-1.3-1.14-1.86-1.82-2.57-4.58-4.76-7.49-10.35-8.89-16.79-.14-.67.04-1.41-.48-2.08-.03-3.38-.03-6.68-.03-10.08.59-.86.54-1.82.75-2.68,1.37-5.61,3.89-10.55,7.8-14.86C14.23,6.06,20.57,2.42,28.13,1.08c8.62-1.53,16.76,0,24.28,4.55.78.47,1.52,1.01,2.25,1.55.7.52,1.37,1.08,2.11,1.66,2.11-1.77,4.34-3.33,6.78-4.57,3.81-1.93,7.83-3.08,12.1-3.52,6.96-.71,13.48.64,19.67,3.79,1.43.73,1.91,1.92,1.32,3.26-.6,1.38-1.75,1.87-3.26,1.21-1.97-.86-3.86-1.91-5.95-2.47-3.61-.98-7.24-1.44-11.02-1.04-5.33.56-10.12,2.37-14.44,5.49-1.21.87-2.39,1.81-3.45,2.85-4.95,4.89-9.87,9.81-14.77,14.75-2.66,2.68-2.37,6.01.62,8,1.69,1.12,4,.89,5.53-.61,2.04-2,4.07-4.01,6.06-6.06.98-1.01,2.12-1.47,3.51-1.45,2.64.03,5.27.02,7.91,0,2.68-.01,4.98-1.01,6.92-2.83,1.41-1.33,2.74-2.75,4.13-4.1.69-.67,1.47-1.21,2.51-1.09.89.11,1.68.53,1.92,1.4.27.96.24,1.96-.61,2.74-2.57,2.37-4.69,5.24-7.78,6.92-.11.49.22.67.45.89,7.35,7.35,14.71,14.7,22.07,22.05.58.58.88,1.34,1.37,1.97.53,0,.79-.4,1.08-.7,4.46-4.67,7.59-10.08,8.57-16.52.83-5.46.35-10.84-1.94-15.96-.46-1.03-.94-2.05-1.42-3.08-.58-1.25-.28-2.69.69-3.22,1.23-.69,2.83-.32,3.53.96,1.85,3.41,3.3,6.98,3.79,10.88.07.54.19,1.07.32,1.68.03,2.65.03,5.22.03,7.89M67.78,33.25c-2.34,0-4.69.02-7.03-.01-.72-.01-1.24.22-1.73.73-1.58,1.63-3.18,3.24-4.81,4.82-2.21,2.15-4.78,3.43-7.95,3.25-4.03-.23-7.24-2.63-8.5-6.32-1.35-3.94-.44-7.47,2.5-10.44,3.4-3.44,6.83-6.84,10.25-10.26.89-.89,1.77-1.8,2.65-2.71-6.51-5.93-19.18-10.18-31.51-4.04-9.73,4.85-15.32,12.91-16.37,23.73-.82,8.39,1.8,15.83,7.58,22.23,1.73-1.75,3.32-3.37,4.92-4.97,1.93-1.92,4.22-2.61,6.95-2.37,4.33.39,7.06,3.83,7.49,7.6.08.69.35.97,1.01,1.01,4.04.25,7.31,3.48,7.56,7.69.04.66.27.86.92.9,4.21.23,7.39,3.43,7.66,7.69.04.58.19.83.82.88,5.31.37,8.61,4.77,7.63,10.22-.12.69-.03,1.18.48,1.67,1.34,1.3,2.66,2.62,3.97,3.95,1.03,1.04,2.22,1.37,3.6.86,1.56-.58,2.38-1.73,2.48-3.4.09-1.44-.79-2.4-1.69-3.3-3.76-3.8-7.56-7.56-11.33-11.35-1.03-1.04-1.16-2.68-.31-3.55.97-1,2.65-.98,3.74.08,2.47,2.39,4.93,4.79,7.38,7.19,1.62,1.59,3.2,3.23,4.82,4.81,1.7,1.65,4.11,1.37,5.43-.61,1.14-1.7.94-3.25-.7-4.91-2.55-2.58-5.13-5.13-7.69-7.69-3.13-3.13-6.27-6.26-9.39-9.41-1.24-1.25-1.36-2.66-.4-3.71.72-.78,2.62-1.07,3.82.28.36.41.79.77,1.17,1.16,5.38,5.39,10.77,10.78,16.15,16.17,1.76,1.76,4.55,1.44,5.81-.68.89-1.5.62-3.18-.78-4.57-5.72-5.73-11.45-11.45-17.17-17.17-1.22-1.22-1.38-2.86-.38-3.81.87-.83,2.8-.73,3.85.34,5.64,5.76,11.36,11.43,17.04,17.14.45.46.98.75,1.55,1.01,1.43.65,3.33.15,4.22-1.11,1.1-1.54,1.04-3.38-.18-4.61-7.89-7.9-15.8-15.8-23.69-23.7-.47-.47-.96-.78-1.84-.69M42.76,86.82c1.44,1.8,3.2,2.26,5.07.96,1.85-1.29,3.48-2.93,4.74-4.81,1.09-1.64.7-3.71-.67-4.74-1.65-1.24-3.5-1.09-5.02.42-1.17,1.16-2.33,2.32-3.49,3.49-1.44,1.44-1.62,2.65-.63,4.67M16.5,60.07c1.39,3.04,3.97,3.55,6.35,1.23,1.15-1.12,2.3-2.25,3.4-3.41.87-.91,1.4-1.99,1.1-3.27-.34-1.44-1.16-2.49-2.67-2.9-1.46-.39-2.62.1-3.63,1.13-1.08,1.09-2.13,2.22-3.27,3.24-1.17,1.05-1.62,2.29-1.29,3.98M27.59,63.45c-.62.62-1.27,1.22-1.85,1.87-1,1.13-1.05,2.93-.17,4.27.88,1.33,2.44,2.14,3.62,1.61,2.91-1.3,4.96-3.65,6.58-6.28.79-1.27-.08-3.27-1.36-4.12-1.32-.87-3.34-.75-4.47.31-.77.72-1.5,1.49-2.36,2.35M35.32,79.35c1.9.91,3.04.72,4.52-.75,1.19-1.19,2.38-2.38,3.57-3.57,1.49-1.49,1.6-3.41.27-5.01-1.1-1.33-3.24-1.63-4.75-.52-1.8,1.32-3.4,2.89-4.71,4.7-1.27,1.75-.82,3.76,1.09,5.15Z"/>
      <path class="cls-1" d="M99.6,13.08c-.45-1.42-.02-2.62,1.07-3.15.92-.45,2.36-.11,2.98.7.81,1.07.54,2.64-.6,3.47-1.09.79-2.62.37-3.44-1.02Z"/>
      <path class="cls-1" d="M53.15,65.31c-1.1,1.07-2.43,1.21-3.39.43-.81-.66-1.07-2.15-.54-3.09.6-1.07,1.91-1.44,3.13-.9,1.04.47,1.49,1.78,1.05,3.1-.05.14-.13.26-.25.46Z"/>
    </g>
  </g>
</svg>