<?xml version="1.0" encoding="UTF-8"?>
<svg id="Layer_2" data-name="Layer 2" xmlns="http://www.w3.org/2000/svg" viewBox="0 0 63.94 107">
  <defs>
    <style>
      .cls-1 {
        fill: #b3b3b3;
        stroke: #b3b3b3;
        stroke-miterlimit: 10;
      }
    </style>
  </defs>
  <g id="Layer_1-2" data-name="Layer 1">
    <g>
      <path class="cls-1" d="M54.33.5H9.61C4.58.5.5,4.58.5,9.61v87.78c0,5.03,4.08,9.11,9.11,9.11h44.72c5.03,0,9.11-4.08,9.11-9.11V9.61c0-5.03-4.08-9.11-9.11-9.11ZM5.47,19.55h53v63.77H5.47V19.55ZM9.61,5.47h44.72c2.29,0,4.14,1.85,4.14,4.14v4.97H5.47v-4.97c0-2.29,1.85-4.14,4.14-4.14ZM54.33,101.53H9.61c-2.29,0-4.14-1.85-4.14-4.14v-9.11h53v9.11c0,2.29-1.85,4.14-4.14,4.14Z"/>
      <circle class="cls-1" cx="31.97" cy="94.84" r="4.97"/>
      <path class="cls-1" d="M25.45,12.09h12.92c1.22,0,2.35-.82,2.56-2.02.28-1.58-.92-2.95-2.44-2.95h-12.92c-1.22,0-2.35.82-2.56,2.02-.28,1.58.92,2.95,2.44,2.95h0Z"/>
    </g>
  </g>
</svg>