<?xml version="1.0" encoding="UTF-8"?>
<svg id="Layer_2" data-name="Layer 2" xmlns="http://www.w3.org/2000/svg" viewBox="0 0 92.42 92.42">
  <defs>
    <style>
      .cls-1, .cls-2 {
        fill: #b3b3b3;
        stroke: #b3b3b3;
        stroke-miterlimit: 10;
        stroke-width: .1px;
      }

      .cls-2 {
        fill-rule: evenodd;
      }
    </style>
  </defs>
  <g id="Layer_1-2" data-name="Layer 1">
    <g id="SVGRepo_iconCarrier" data-name="SVGRepo iconCarrier">
      <path class="cls-1" d="M88.35,44.2c0,1.42-.07,2.83-.2,4.22-2.27-2.28-4.94-4.16-7.88-5.55-.7-19.32-16.58-34.76-36.07-34.76S8.11,24.27,8.11,44.2s15.44,35.37,34.76,36.07c1.39,2.94,3.28,5.61,5.55,7.88-1.39.13-2.8.2-4.22.2C19.82,88.35.05,68.59.05,44.2S19.82.05,44.2.05s44.15,19.77,44.15,44.15Z"/>
      <path class="cls-1" d="M48.35,43.77l3.4,1.96c-2.25,1.66-4.24,3.65-5.91,5.9l-3.47-2c-.7-.4-1.23-.99-1.58-1.66-.51-.79-.51-1.84-.51-1.84v-25.99c0-1.89,1.26-3.61,3.1-4.02,2.63-.59,4.97,1.4,4.97,3.93v23.72Z"/>
      <path class="cls-1" d="M57.42,67.11c1.57-1.57,4.11-1.57,5.68,0l2.57,2.57,7.62-7.62c1.57-1.57,4.11-1.57,5.68,0,1.57,1.57,1.57,4.11,0,5.68l-10.2,10.2c-.35.35-.74.62-1.16.81-1.54.9-3.54.69-4.86-.63l-5.33-5.33c-1.57-1.57-1.57-4.11,0-5.68Z"/>
      <path class="cls-2" d="M68.28,92.37c13.3,0,24.08-10.78,24.08-24.08s-10.78-24.08-24.08-24.08-24.08,10.78-24.08,24.08,10.78,24.08,24.08,24.08ZM68.28,84.41c-8.91,0-16.13-7.22-16.13-16.13s7.22-16.13,16.13-16.13,16.13,7.22,16.13,16.13-7.22,16.13-16.13,16.13Z"/>
    </g>
  </g>
</svg>