<?xml version="1.0" encoding="UTF-8"?>
<svg id="Layer_2" data-name="Layer 2" xmlns="http://www.w3.org/2000/svg" viewBox="0 0 95 94.9">
  <defs>
    <style>
      .cls-1 {
        fill: #b3b3b3;
        stroke: #b3b3b3;
        stroke-miterlimit: 10;
      }
    </style>
  </defs>
  <g id="Layer_1-2" data-name="Layer 1">
    <g id="_1" data-name=" 1">
      <path class="cls-1" d="M74.21,94.18c-1.41.51-2.92.08-3.85-.98l-18.49-21.15H15.57c-8.32-.01-15.06-6.75-15.07-15.07V15.57C.51,7.25,7.25.51,15.57.5h63.88c8.31.01,15.05,6.75,15.05,15.07v41.42c0,8.32-6.74,15.06-15.05,15.07h-2.95v18.76c0,1.49-.89,2.86-2.29,3.37ZM15.58,7.51c-4.45,0-8.06,3.61-8.07,8.06v41.39c0,4.45,3.62,8.06,8.07,8.07h37.82c1.01,0,1.97.44,2.64,1.2l13.43,15.35v-13.04c0-1.94,1.57-3.51,3.51-3.51h6.43c4.45,0,8.06-3.61,8.07-8.06V15.57c0-4.44-3.61-8.05-8.06-8.06H15.58Z"/>
      <path class="cls-1" d="M34.49,50.89c-.93,0-1.82-.37-2.49-1.03-.08-.08-.16-.17-.23-.26-.07-.09-.14-.18-.2-.28-.06-.1-.12-.19-.18-.29-.05-.1-.1-.21-.15-.31s-.08-.22-.12-.32-.06-.23-.08-.33-.04-.23-.05-.34c-.01-.12-.02-.23-.02-.35,0-.11,0-.23.02-.34.01-.11.03-.23.05-.34s.05-.23.08-.33.07-.22.12-.33.09-.21.15-.31c.05-.1.11-.2.18-.3.06-.09.13-.19.2-.28s.15-.18.23-.26c.75-.74,1.78-1.11,2.82-1.01.11.01.23.03.34.05s.23.05.33.08.22.07.33.12.21.09.31.15.2.11.3.18.19.13.28.2.18.15.25.23.16.17.23.26.14.18.2.28c.06.1.12.2.18.3.05.1.1.2.15.31.04.11.08.22.12.33s.06.22.08.33.04.23.05.34.02.23.02.34,0,.23-.02.35-.03.23-.05.34-.05.23-.08.33-.07.22-.12.32-.09.21-.15.31-.11.2-.18.29-.13.19-.2.28-.15.18-.23.26-.17.16-.25.23-.18.14-.28.2-.2.12-.3.18-.2.1-.31.15-.22.08-.33.12-.22.06-.33.08-.23.04-.34.05-.22.01-.34.01Z"/>
      <path class="cls-1" d="M60.45,50.89c-.11,0-.23,0-.34-.02s-.23-.03-.34-.05-.23-.05-.33-.08-.22-.07-.32-.12-.21-.09-.31-.15c-.1-.05-.2-.11-.3-.18-.09-.06-.19-.13-.28-.2s-.18-.15-.26-.23-.16-.17-.23-.26-.14-.18-.2-.28c-.06-.1-.12-.2-.18-.3-.05-.1-.1-.2-.15-.31-.04-.11-.08-.22-.12-.32s-.06-.23-.08-.33-.04-.23-.05-.34-.02-.23-.02-.35,0-.23.02-.35.03-.23.05-.34.05-.23.08-.33.07-.22.12-.32.09-.21.15-.31.11-.2.18-.29c.06-.1.13-.19.2-.28.07-.09.15-.18.23-.26s.17-.16.26-.23.18-.14.28-.2c.1-.06.2-.12.3-.18.1-.05.2-.1.31-.15.11-.04.22-.08.32-.12s.23-.06.33-.08.23-.04.34-.05c.23-.02.46-.02.69,0,.11.01.23.03.34.05s.23.05.33.08.22.07.32.12.21.09.31.15c.1.05.2.11.3.18.09.06.19.13.28.2s.18.15.26.23.16.17.23.26c.07.09.14.18.2.28.06.1.12.19.18.29.05.1.1.21.15.31s.08.22.12.32.06.23.08.33.04.23.05.34c.02.23.02.47,0,.7-.01.11-.03.23-.05.34s-.05.23-.08.33-.07.22-.12.32-.09.21-.15.31c-.05.1-.11.2-.18.3-.06.09-.13.19-.2.28s-.15.18-.23.26-.17.16-.26.23-.18.14-.28.2c-.1.06-.2.12-.3.18-.1.05-.2.1-.31.15-.11.04-.22.08-.32.12s-.22.06-.33.08-.23.04-.34.05-.23,0-.35,0Z"/>
      <path class="cls-1" d="M47.47,50.89c-.11,0-.23,0-.34-.02-.11-.01-.23-.03-.34-.05s-.22-.05-.33-.08-.22-.07-.32-.12-.21-.09-.31-.15c-.2-.11-.39-.23-.57-.38-.09-.07-.18-.15-.25-.23-.08-.08-.16-.17-.23-.26-.07-.09-.14-.18-.21-.28-.06-.1-.12-.2-.18-.3-.05-.1-.1-.2-.15-.31-.04-.11-.08-.22-.11-.33-.03-.11-.06-.22-.08-.33-.05-.23-.07-.46-.07-.69,0-.12,0-.23.02-.35.01-.11.03-.23.05-.34.02-.11.05-.22.08-.33.03-.11.07-.22.11-.32s.09-.21.15-.31c.05-.1.11-.2.18-.3.06-.09.13-.19.21-.28.07-.09.15-.18.23-.26.08-.08.17-.16.25-.23.18-.14.37-.27.57-.38.1-.05.21-.1.31-.15s.21-.08.32-.12.22-.06.33-.08.23-.04.34-.05c.23-.02.47-.02.7,0,.11.01.23.03.34.05s.23.05.33.08.22.07.32.12.21.09.31.15.2.11.29.18c.1.06.19.13.28.2.09.07.18.15.25.23.08.08.16.17.23.26.07.09.14.18.21.28.06.1.12.2.18.3.05.1.1.2.14.31.04.11.08.21.12.32.03.11.06.23.08.33.02.11.04.23.05.34.01.12.02.23.02.35,0,.23-.02.46-.07.69-.02.11-.05.23-.08.33-.03.11-.07.22-.12.33-.04.11-.09.21-.14.31-.05.1-.11.2-.18.3s-.13.19-.21.28c-.07.09-.15.18-.23.26-.08.08-.17.16-.25.23-.09.07-.18.14-.28.2-.1.06-.19.12-.29.18-.1.05-.21.1-.31.15s-.21.08-.32.12-.22.06-.33.08-.23.04-.34.05c-.12.01-.24.02-.36.02Z"/>
    </g>
  </g>
</svg>