<?xml version="1.0" encoding="UTF-8"?>
<svg id="Layer_2" data-name="Layer 2" xmlns="http://www.w3.org/2000/svg" viewBox="0 0 178.89 93.03">
  <defs>
    <style>
      .cls-1, .cls-2, .cls-3, .cls-4 {
        stroke-width: 0px;
      }

      .cls-1, .cls-2, .cls-4 {
        fill: #005f56;
      }

      .cls-1, .cls-5 {
        opacity: .75;
      }

      .cls-2 {
        opacity: .5;
      }

      .cls-6, .cls-5, .cls-7, .cls-8 {
        stroke: #005f56;
        stroke-miterlimit: 10;
      }

      .cls-6, .cls-3 {
        fill: #fff;
      }

      .cls-6, .cls-7 {
        stroke-width: 4px;
      }

      .cls-5, .cls-8 {
        fill: #cc3266;
      }

      .cls-7 {
        fill: none;
      }

      .cls-8 {
        opacity: .53;
      }
    </style>
  </defs>
  <g id="Layer_1-2" data-name="Layer 1">
    <path class="cls-1" d="M25.62,2.13h63.61v32.83H2v-17.71C2,8.9,12.58,2.13,25.62,2.13Z"/>
    <line class="cls-5" x1="89.23" y1="34.96" x2="89.23" y2="2"/>
    <path class="cls-1" d="M89.61,2.13h61.34c14.3,0,25.89,7.42,25.89,16.57v16.26h-87.23V2.13Z"/>
    <path class="cls-6" d="M2,33.49h87.23v57.54H23.97c-12.13,0-21.97-9.34-21.97-20.86v-36.68Z"/>
    <line class="cls-6" x1="89.23" y1="91.03" x2="89.23" y2="33.49"/>
    <line class="cls-6" x1="89.61" y1="33.49" x2="89.61" y2="91.03"/>
    <path class="cls-6" d="M89.61,33.49h87.23v30.16c0,15.12-12.91,27.38-28.84,27.38h-58.4v-57.54Z"/>
    <path class="cls-2" d="M1.82,33.18h87.23v57.54H23.47c-11.96,0-21.65-9.2-21.65-20.56v-36.98Z"/>
    <line class="cls-8" x1="89.44" y1="33.18" x2="89.44" y2="90.72"/>
    <path class="cls-7" d="M26.47,2h62.81v32.83H2.04v-17.2C2.04,9,12.98,2,26.47,2Z"/>
    <line class="cls-7" x1="89.28" y1="34.76" x2="89.28" y2="1.03"/>
    <line class="cls-7" x1="89.66" y1="2" x2="89.66" y2="34.76"/>
    <path class="cls-7" d="M89.66,2h60.73c14.64,0,26.5,7.59,26.5,16.96v15.87h-87.23V2Z"/>
    <path class="cls-4" d="M132.02,59.01c-.28.16-.55.32-.83.47-.27.15-.54.3-.81.43l-.64-1.31c.23-.13.45-.25.66-.38.21-.13.42-.25.62-.38.2-.13.41-.26.61-.4.21-.14.42-.29.64-.45h1.59v9.71h-1.85v-7.71Z"/>
    <path class="cls-3" d="M49.65,62.75h1.07v1.57h-1.07v1.93h-1.83v-1.93h-4.57v-1.52c.56-1.05,1.16-2.09,1.81-3.13s1.36-2.08,2.12-3.13h2.47v6.21ZM47.84,58.3c-.51.72-1,1.44-1.46,2.18-.46.74-.9,1.5-1.32,2.27h2.78v-4.45Z"/>
    <g>
      <path class="cls-3" d="M34.14,21.37h2.98v1.38h-4.61v-8.33h1.63v6.95Z"/>
      <path class="cls-3" d="M38,17.43c.34-.25.73-.44,1.15-.57s.88-.2,1.37-.2c.4,0,.76.05,1.08.14s.58.24.8.44.38.45.5.74.17.66.17,1.08v2.01c0,.33.14.49.41.49.09,0,.16-.01.23-.04s.14-.07.21-.13l.15,1.19c-.13.08-.28.15-.45.19s-.35.07-.57.07c-.32,0-.58-.06-.79-.18s-.37-.28-.47-.46c-.1.09-.21.18-.33.26s-.26.16-.41.22-.31.11-.49.14-.36.05-.56.05c-.31,0-.59-.04-.84-.13s-.46-.2-.64-.36-.31-.33-.4-.54c-.09-.21-.14-.44-.14-.68,0-.29.06-.55.18-.78.12-.23.3-.42.53-.58.23-.16.51-.28.84-.36s.71-.12,1.12-.12c.16,0,.31,0,.45.02s.27.03.4.05v-.26c0-.22-.03-.41-.08-.56-.05-.15-.14-.28-.24-.37-.11-.1-.24-.17-.39-.21s-.33-.06-.53-.06c-.37,0-.71.06-1.02.18s-.61.29-.89.5l-.33-1.2ZM41.5,20.49c-.12-.03-.24-.05-.37-.06s-.25-.02-.39-.02c-.2,0-.38.01-.53.04s-.28.07-.38.13-.18.13-.23.21-.08.18-.08.28c0,.1.02.18.06.26s.09.14.16.19.15.09.25.12.21.04.33.04c.26,0,.49-.05.68-.14s.36-.22.49-.37v-.67Z"/>
      <path class="cls-3" d="M44.37,18v-1.23h.84v-1.43l1.56-.15v1.58h1.66v1.23h-1.66v2.67c0,.29.07.51.2.65.13.14.33.21.58.21.17,0,.33-.03.48-.08s.3-.14.44-.25l.2,1.25c-.21.14-.45.25-.71.31s-.53.1-.8.1c-.63,0-1.12-.17-1.45-.51s-.5-.86-.5-1.55v-2.81h-.84Z"/>
      <path class="cls-3" d="M50.45,13.82c.15,0,.29.03.41.08s.23.12.33.22.17.2.22.33.08.26.08.41-.03.29-.08.41-.13.23-.22.33-.2.16-.33.22-.26.08-.41.08-.29-.03-.41-.08-.23-.12-.33-.22-.17-.2-.22-.33-.08-.26-.08-.41.03-.28.08-.41.13-.24.22-.33.2-.16.33-.22.26-.08.41-.08ZM49.67,16.77h1.56v5.98h-1.56v-5.98Z"/>
      <path class="cls-3" d="M54.5,23.46c0,.34-.04.64-.13.91s-.21.5-.38.69-.38.33-.62.43c-.25.1-.54.15-.86.15-.21,0-.42-.02-.6-.06s-.36-.1-.52-.18l.18-1.26c.11.05.22.1.33.13s.22.04.33.04c.23,0,.41-.07.53-.22s.18-.36.18-.63v-6.71h1.56v6.7ZM53.72,13.82c.15,0,.29.03.41.08s.23.12.33.22.17.2.22.33.08.26.08.41-.03.29-.08.41-.13.23-.22.33-.2.16-.33.22-.26.08-.41.08-.29-.03-.41-.08-.23-.12-.33-.22-.17-.2-.22-.33-.08-.26-.08-.41.03-.28.08-.41.13-.24.22-.33.2-.16.33-.22.26-.08.41-.08Z"/>
      <path class="cls-3" d="M56.21,16.77h1.23l.08.57c.23-.21.49-.38.78-.51s.62-.19.98-.19c.32,0,.62.05.9.15.28.1.52.25.73.46s.37.46.49.78.18.68.18,1.1v3.62h-1.56v-3.43c0-.25-.03-.47-.09-.64s-.14-.32-.25-.43-.23-.19-.36-.24c-.14-.05-.28-.08-.43-.08-.21,0-.41.05-.6.14-.19.1-.37.23-.52.41v4.27h-1.56v-5.98Z"/>
    </g>
    <g>
      <path class="cls-3" d="M104.36,6.42h1.63v3.64c.29-.24.57-.5.83-.77s.53-.56.78-.86.49-.62.73-.96.47-.68.69-1.05h1.68c-.41.73-.83,1.41-1.25,2.02s-.85,1.15-1.29,1.63c.49.73.96,1.49,1.41,2.28s.87,1.59,1.27,2.4h-1.8c-.16-.31-.32-.61-.49-.91s-.34-.6-.52-.9-.36-.6-.55-.9-.38-.61-.59-.91c-.16.12-.31.25-.45.36s-.29.23-.45.33v2.93h-1.63V6.42Z"/>
      <path class="cls-3" d="M113.33,12.89c0,.22.05.39.14.5s.23.16.4.16c.1,0,.19-.01.27-.04s.16-.06.23-.11l.17,1.22c-.17.08-.35.14-.55.18s-.4.06-.59.06c-.26,0-.49-.04-.69-.11s-.37-.19-.51-.34-.25-.34-.32-.57-.11-.49-.11-.79v-7.07l1.56-.18v7.07Z"/>
      <path class="cls-3" d="M115.31,9.43c.34-.25.73-.44,1.15-.57s.88-.2,1.37-.2c.4,0,.76.05,1.08.14s.58.24.8.44.38.45.5.74.17.66.17,1.08v2.01c0,.33.14.49.41.49.09,0,.16-.01.23-.04s.14-.07.21-.13l.15,1.19c-.13.08-.28.15-.45.19s-.35.07-.57.07c-.32,0-.58-.06-.79-.18s-.37-.28-.47-.46c-.1.09-.21.18-.33.26s-.26.16-.41.22-.31.11-.49.14-.36.05-.56.05c-.31,0-.59-.04-.84-.13s-.46-.2-.64-.36-.31-.33-.4-.54c-.09-.21-.14-.44-.14-.68,0-.29.06-.55.18-.78.12-.23.3-.42.53-.58.23-.16.51-.28.84-.36s.71-.12,1.12-.12c.16,0,.31,0,.45.02s.27.03.4.05v-.26c0-.22-.03-.41-.08-.56-.05-.15-.14-.28-.24-.37-.11-.1-.24-.17-.39-.21s-.33-.06-.53-.06c-.37,0-.71.06-1.02.18s-.61.29-.89.5l-.33-1.2ZM118.8,12.49c-.12-.03-.24-.05-.37-.06s-.25-.02-.39-.02c-.2,0-.38.01-.53.04s-.28.07-.38.13-.18.13-.23.21-.08.18-.08.28c0,.1.02.18.06.26s.09.14.16.19.15.09.25.12.21.04.33.04c.26,0,.49-.05.68-.14s.36-.22.49-.37v-.67Z"/>
      <path class="cls-3" d="M122.37,13.21c.25.15.5.26.75.34s.5.11.76.11c.14,0,.26-.01.37-.04s.2-.06.27-.11.13-.1.17-.17.06-.14.06-.21c0-.12-.04-.23-.12-.32s-.18-.17-.31-.23-.28-.13-.44-.19-.33-.13-.51-.2-.34-.15-.51-.25-.31-.21-.44-.34-.23-.3-.31-.48-.12-.41-.12-.67c0-.27.05-.52.16-.74s.26-.41.47-.57.45-.27.73-.36.6-.13.96-.13c.31,0,.61.04.91.11s.56.17.79.31l-.32,1.18c-.2-.12-.41-.22-.64-.29s-.46-.1-.69-.1c-.13,0-.25.01-.35.04s-.19.06-.26.1-.12.09-.16.15-.05.13-.05.21c0,.12.04.22.12.3s.18.16.31.22.28.13.45.18.33.12.51.19.34.15.5.25.31.21.45.35.24.3.32.5.12.42.12.68c0,.29-.06.54-.17.77s-.27.42-.48.58-.46.28-.75.37-.62.13-.97.13c-.18,0-.35,0-.52-.03s-.33-.05-.49-.09-.31-.09-.45-.15-.28-.12-.4-.2l.3-1.2Z"/>
      <path class="cls-3" d="M127.53,13.21c.25.15.5.26.75.34s.5.11.76.11c.14,0,.26-.01.37-.04s.2-.06.27-.11.13-.1.17-.17.06-.14.06-.21c0-.12-.04-.23-.12-.32s-.18-.17-.31-.23-.28-.13-.44-.19-.33-.13-.51-.2-.34-.15-.51-.25-.31-.21-.44-.34-.23-.3-.31-.48-.12-.41-.12-.67c0-.27.05-.52.16-.74s.26-.41.47-.57.45-.27.73-.36.6-.13.96-.13c.31,0,.61.04.91.11s.56.17.79.31l-.32,1.18c-.2-.12-.41-.22-.64-.29s-.46-.1-.69-.1c-.13,0-.25.01-.35.04s-.19.06-.26.1-.12.09-.16.15-.05.13-.05.21c0,.12.04.22.12.3s.18.16.31.22.28.13.45.18.33.12.51.19.34.15.5.25.31.21.45.35.24.3.32.5.12.42.12.68c0,.29-.06.54-.17.77s-.27.42-.48.58-.46.28-.75.37-.62.13-.97.13c-.18,0-.35,0-.52-.03s-.33-.05-.49-.09-.31-.09-.45-.15-.28-.12-.4-.2l.3-1.2Z"/>
      <path class="cls-3" d="M133.54,5.82c.15,0,.29.03.41.08s.23.12.33.22.17.2.22.33.08.26.08.41-.03.29-.08.41-.13.23-.22.33-.2.16-.33.22-.26.08-.41.08-.29-.03-.41-.08-.23-.12-.33-.22-.17-.2-.22-.33-.08-.26-.08-.41.03-.28.08-.41.13-.24.22-.33.2-.16.33-.22.26-.08.41-.08ZM132.76,8.77h1.56v5.98h-1.56v-5.98Z"/>
      <path class="cls-3" d="M141.11,14.23c-.32.21-.67.37-1.05.47s-.79.16-1.22.16c-.48,0-.92-.07-1.3-.21s-.71-.34-.98-.6-.47-.59-.62-.97-.21-.81-.21-1.29.07-.92.2-1.31.33-.72.57-1,.54-.49.89-.64.73-.22,1.14-.22c.38,0,.72.06,1.03.19s.57.31.79.56.38.54.5.89.18.75.18,1.21c0,.11,0,.22,0,.32s-.02.2-.03.3h-3.69c.02.24.08.45.17.63s.2.33.35.46.32.22.52.29c.21.07.44.1.7.1.34,0,.65-.05.93-.15.29-.1.56-.24.83-.43l.32,1.21ZM139.52,11.03c0-.18-.03-.34-.08-.49s-.12-.27-.2-.37c-.09-.1-.2-.18-.32-.24-.13-.05-.27-.08-.42-.08s-.29.03-.42.08-.24.13-.34.23-.18.23-.25.37c-.07.15-.12.31-.16.5h2.2Z"/>
      <path class="cls-3" d="M144.11,11.06c.43-.31.84-.65,1.22-1.04s.72-.8,1.03-1.26h1.6c-.27.45-.55.87-.87,1.27-.31.4-.64.77-.98,1.12.33.53.66,1.1.98,1.69.32.6.65,1.23.98,1.9h-1.73c-.23-.46-.46-.92-.69-1.36s-.49-.88-.75-1.32c-.12.09-.25.18-.38.27-.13.09-.27.17-.41.25v2.14h-1.56V5.99l1.56-.18v5.24Z"/>
      <path class="cls-3" d="M153.93,14.23c-.32.21-.67.37-1.05.47s-.79.16-1.22.16c-.48,0-.92-.07-1.3-.21s-.71-.34-.98-.6-.47-.59-.62-.97-.21-.81-.21-1.29.07-.92.2-1.31.33-.72.57-1,.54-.49.89-.64.73-.22,1.14-.22c.38,0,.72.06,1.03.19s.57.31.79.56.38.54.5.89.18.75.18,1.21c0,.11,0,.22,0,.32s-.02.2-.03.3h-3.69c.02.24.08.45.17.63s.2.33.35.46.32.22.52.29c.21.07.44.1.7.1.34,0,.65-.05.93-.15.29-.1.56-.24.83-.43l.32,1.21ZM152.34,11.03c0-.18-.03-.34-.08-.49s-.12-.27-.2-.37c-.09-.1-.2-.18-.32-.24-.13-.05-.27-.08-.42-.08s-.29.03-.42.08-.24.13-.34.23-.18.23-.25.37c-.07.15-.12.31-.16.5h2.2Z"/>
      <path class="cls-3" d="M109.92,27.28c.3.2.62.35.95.46s.66.16.99.16c.2,0,.38-.02.54-.06s.29-.11.41-.19.2-.18.26-.3.09-.25.09-.4c0-.19-.05-.36-.16-.5s-.24-.27-.42-.38-.37-.22-.59-.32-.45-.21-.67-.32-.45-.23-.67-.37-.42-.29-.59-.47-.31-.4-.41-.64-.16-.53-.16-.86c0-.37.07-.71.2-1s.33-.55.57-.76.54-.37.88-.47.72-.16,1.13-.16.8.05,1.15.15c.35.1.67.25.98.45l-.39,1.3c-.28-.17-.56-.3-.84-.4-.29-.09-.58-.14-.88-.14-.17,0-.32.02-.47.06-.14.04-.27.1-.37.18-.1.08-.19.17-.24.28s-.09.24-.09.37c0,.19.05.35.16.48s.24.26.41.37.37.21.59.31c.22.1.45.2.67.31s.45.23.67.37.42.3.59.48.31.4.41.65.16.54.16.88c0,.38-.07.72-.22,1.02s-.35.56-.6.77-.57.38-.92.49-.74.17-1.16.17c-.47,0-.89-.06-1.28-.17-.38-.12-.73-.28-1.04-.5l.36-1.32Z"/>
      <path class="cls-3" d="M115.44,24.4v-1.23h.84v-1.43l1.56-.15v1.58h1.66v1.23h-1.66v2.67c0,.29.07.51.2.65.13.14.33.21.58.21.17,0,.33-.03.48-.08s.3-.14.44-.25l.2,1.25c-.21.14-.45.25-.71.31s-.53.1-.8.1c-.63,0-1.12-.17-1.45-.51s-.5-.86-.5-1.55v-2.81h-.84Z"/>
      <path class="cls-3" d="M126.06,29.15h-1.22l-.09-.59c-.23.22-.49.4-.79.52s-.63.19-.98.19c-.32,0-.62-.05-.9-.15s-.53-.25-.74-.46-.37-.46-.5-.78-.18-.68-.18-1.1v-3.62h1.56v3.42c0,.25.03.47.09.65s.14.32.25.43.23.19.36.24c.14.05.28.07.43.07.21,0,.41-.05.6-.15.19-.1.37-.24.53-.42v-4.25h1.56v5.98Z"/>
      <path class="cls-3" d="M131.91,29.15l-.09-.6c-.25.25-.53.43-.84.55s-.64.18-.99.18-.71-.07-1.02-.21-.58-.34-.8-.59-.39-.56-.52-.92-.18-.76-.18-1.19c0-.5.08-.96.25-1.37s.41-.76.73-1.05.72-.51,1.19-.67,1.01-.23,1.62-.23h.31v-2.65l1.56-.18v8.93h-1.22ZM131.57,24.37h-.45c-.35,0-.66.05-.91.14s-.47.22-.64.39-.3.37-.38.61-.12.5-.12.79c0,.25.03.49.09.69s.15.39.26.53.25.26.42.34.35.12.56.12c.23,0,.45-.05.65-.15s.38-.24.54-.41v-3.06Z"/>
      <path class="cls-3" d="M135.62,20.22c.15,0,.29.03.41.08s.23.12.33.22.17.2.22.33.08.26.08.41-.03.29-.08.41-.13.23-.22.33-.2.16-.33.22-.26.08-.41.08-.29-.03-.41-.08-.23-.12-.33-.22-.17-.2-.22-.33-.08-.26-.08-.41.03-.28.08-.41.13-.24.22-.33.2-.16.33-.22.26-.08.41-.08ZM134.84,23.17h1.56v5.98h-1.56v-5.98Z"/>
      <path class="cls-3" d="M143.19,28.63c-.32.21-.67.37-1.05.47s-.79.16-1.22.16c-.48,0-.92-.07-1.3-.21s-.71-.34-.98-.6-.47-.59-.62-.97-.21-.81-.21-1.29.07-.92.2-1.31.33-.72.57-1,.54-.49.89-.64.73-.22,1.14-.22c.38,0,.72.06,1.03.19s.57.31.79.56.38.54.5.89.18.75.18,1.21c0,.11,0,.22,0,.32s-.02.2-.03.3h-3.69c.02.24.08.45.17.63s.2.33.35.46.32.22.52.29c.21.07.44.1.7.1.34,0,.65-.05.93-.15.29-.1.56-.24.83-.43l.32,1.21ZM141.6,25.43c0-.18-.03-.34-.08-.49s-.12-.27-.2-.37c-.09-.1-.2-.18-.32-.24-.13-.05-.27-.08-.42-.08s-.29.03-.42.08-.24.13-.34.23-.18.23-.25.37c-.07.15-.12.31-.16.5h2.2Z"/>
      <path class="cls-3" d="M144.69,27.61c.25.15.5.26.75.34s.5.11.76.11c.14,0,.26-.01.37-.04s.2-.06.27-.11.13-.1.17-.17.06-.14.06-.21c0-.12-.04-.23-.12-.32s-.18-.17-.31-.23-.28-.13-.44-.19-.33-.13-.51-.2-.34-.15-.51-.25-.31-.21-.44-.34-.23-.3-.31-.48-.12-.41-.12-.67c0-.27.05-.52.16-.74s.26-.41.47-.57.45-.27.73-.36.6-.13.96-.13c.31,0,.61.04.91.11s.56.17.79.31l-.32,1.18c-.2-.12-.41-.22-.64-.29s-.46-.1-.69-.1c-.13,0-.25.01-.35.04s-.19.06-.26.1-.12.09-.16.15-.05.13-.05.21c0,.12.04.22.12.3s.18.16.31.22.28.13.45.18.33.12.51.19.34.15.5.25.31.21.45.35.24.3.32.5.12.42.12.68c0,.29-.06.54-.17.77s-.27.42-.48.58-.46.28-.75.37-.62.13-.97.13c-.18,0-.35,0-.52-.03s-.33-.05-.49-.09-.31-.09-.45-.15-.28-.12-.4-.2l.3-1.2Z"/>
    </g>
  </g>
</svg>