<?xml version="1.0" encoding="UTF-8"?>
<svg id="Layer_2" data-name="Layer 2" xmlns="http://www.w3.org/2000/svg" viewBox="0 0 265.83 95.33">
  <defs>
    <style>
      .cls-1 {
        opacity: .75;
      }

      .cls-1, .cls-2, .cls-3, .cls-4 {
        stroke-width: 0px;
      }

      .cls-1, .cls-2, .cls-4 {
        fill: #005f56;
      }

      .cls-2 {
        opacity: .5;
      }

      .cls-5, .cls-3 {
        fill: #fff;
      }

      .cls-5, .cls-6 {
        stroke: #005f56;
        stroke-miterlimit: 10;
        stroke-width: 4px;
      }

      .cls-6 {
        fill: none;
      }
    </style>
  </defs>
  <g id="Layer_1-2" data-name="Layer 1">
    <path class="cls-1" d="M25.63,2.11h63.63v28.96H2v-15.63C2,8.09,12.58,2.11,25.63,2.11Z"/>
    <rect class="cls-1" x="89.26" y="2.11" width="87.26" height="28.96"/>
    <path class="cls-1" d="M176.52,2.11h51.68c19.65,0,35.58,8.99,35.58,20.09v8.88h-87.26V2.11Z"/>
    <path class="cls-5" d="M2,32.7h87.26v60.63H23.98c-12.14,0-21.98-9.84-21.98-21.98v-38.65Z"/>
    <rect class="cls-5" x="89.26" y="32.7" width="87.26" height="60.63"/>
    <path class="cls-5" d="M176.52,32.7h87.26v28.94c0,17.5-14.19,31.69-31.69,31.69h-55.58v-60.63Z"/>
    <path class="cls-2" d="M1.82,32.37h87.26v60.63H23.48c-11.96,0-21.66-9.7-21.66-21.66v-38.97Z"/>
    <path class="cls-2" d="M176.35,32.37h87.26v29.19c0,17.36-14.07,31.43-31.43,31.43h-55.83v-60.63Z"/>
    <path class="cls-6" d="M26.48,2h62.83v28.96H2.04v-15.17C2.04,8.17,12.98,2,26.48,2Z"/>
    <rect class="cls-6" x="89.31" y="2" width="87.26" height="28.96"/>
    <path class="cls-6" d="M176.57,2h53.91c18.42,0,33.35,8.43,33.35,18.82v10.14h-87.26V2Z"/>
    <path class="cls-4" d="M133.24,56.5c-.28.16-.55.32-.83.47-.27.15-.54.3-.81.43l-.64-1.31c.23-.13.45-.25.66-.38.21-.13.42-.25.62-.38.2-.13.41-.26.61-.4.21-.14.42-.29.64-.45h1.59v9.71h-1.85v-7.71Z"/>
    <path class="cls-3" d="M42.27,59.58h.93c.32,0,.6-.04.86-.11.25-.07.47-.17.65-.3.18-.13.31-.28.41-.46.1-.18.14-.37.14-.58,0-.2-.03-.37-.1-.53-.07-.16-.16-.29-.29-.39-.12-.11-.28-.19-.46-.24-.18-.05-.39-.08-.61-.08-.36,0-.71.06-1.06.18-.35.12-.67.3-.96.54l-.37-1.38c.38-.28.79-.49,1.24-.64.45-.15.93-.23,1.46-.23.48,0,.91.06,1.28.18.38.12.7.29.96.51.26.22.46.49.6.81.14.32.21.67.21,1.06,0,.25-.04.49-.11.71-.07.22-.17.42-.3.6-.13.18-.29.34-.46.48-.18.14-.38.26-.58.37.59.22,1.04.53,1.35.92s.46.88.46,1.45c0,.45-.09.86-.26,1.22-.18.36-.42.67-.74.92-.32.25-.7.44-1.13.58-.44.14-.92.21-1.45.21s-1-.06-1.47-.17-.88-.28-1.25-.5l.39-1.45c.33.19.68.34,1.06.44s.78.16,1.21.16c.26,0,.5-.03.72-.1.22-.07.4-.16.55-.28.15-.12.27-.27.35-.44.08-.17.12-.36.12-.56,0-.22-.05-.42-.14-.6s-.23-.33-.41-.45c-.19-.12-.42-.22-.71-.28-.28-.06-.62-.1-1-.1h-1.09v-1.46Z"/>
    <g>
      <path class="cls-3" d="M19.52,10.24c-.11,1.06-.28,2.11-.5,3.16s-.5,2.08-.81,3.08h-1.64l-1.08-4.56-1.08,4.56h-1.62c-.32-1-.59-2.03-.81-3.08-.22-1.05-.39-2.11-.5-3.16h1.24c.05.42.1.85.17,1.28s.14.86.22,1.29c.08.43.17.85.27,1.26.1.41.2.82.31,1.21l1.17-5.03h1.31l1.19,5.05c.11-.39.21-.79.31-1.21.1-.42.19-.84.27-1.27.08-.43.16-.86.22-1.29.06-.43.12-.86.17-1.29h1.2Z"/>
      <path class="cls-3" d="M24.04,16.1c-.24.16-.5.27-.79.36-.28.08-.59.12-.92.12-.36,0-.69-.05-.97-.16-.29-.1-.53-.25-.73-.45-.2-.2-.35-.44-.46-.72-.11-.29-.16-.61-.16-.96s.05-.69.15-.98c.1-.29.24-.54.43-.75.18-.21.41-.37.67-.48.26-.11.54-.17.85-.17.28,0,.54.05.77.14.23.1.43.23.59.42.16.18.29.41.38.67s.13.57.13.91c0,.08,0,.17,0,.24,0,.08-.01.15-.02.23h-2.77c.02.18.06.34.12.47.07.14.15.25.26.34.11.09.24.17.39.22.15.05.33.08.52.08.25,0,.49-.04.7-.11s.42-.18.62-.32l.24.91ZM22.85,13.7c0-.13-.02-.26-.06-.36-.04-.11-.09-.2-.15-.28-.07-.08-.15-.14-.24-.18-.09-.04-.2-.06-.32-.06s-.22.02-.31.06-.18.1-.25.17c-.07.08-.14.17-.19.28-.05.11-.09.24-.12.38h1.65Z"/>
      <path class="cls-3" d="M24.67,12.92v-.92h.63v-1.07l1.17-.12v1.19h1.25v.92h-1.25v2c0,.22.05.38.15.49.1.11.25.16.44.16.12,0,.24-.02.36-.06s.22-.1.33-.19l.15.94c-.16.11-.34.18-.53.24-.2.05-.4.08-.6.08-.47,0-.84-.13-1.09-.38s-.38-.64-.38-1.17v-2.11h-.63Z"/>
      <path class="cls-3" d="M32.4,16.1c-.24.16-.5.27-.79.36-.28.08-.59.12-.92.12-.36,0-.69-.05-.97-.16-.29-.1-.53-.25-.73-.45-.2-.2-.35-.44-.46-.72-.11-.29-.16-.61-.16-.96s.05-.69.15-.98c.1-.29.24-.54.43-.75.18-.21.41-.37.67-.48.26-.11.54-.17.85-.17.28,0,.54.05.77.14.23.1.43.23.59.42.16.18.29.41.38.67s.13.57.13.91c0,.08,0,.17,0,.24,0,.08-.01.15-.02.23h-2.77c.02.18.06.34.12.47.07.14.15.25.26.34.11.09.24.17.39.22.15.05.33.08.52.08.25,0,.49-.04.7-.11s.42-.18.62-.32l.24.91ZM31.21,13.7c0-.13-.02-.26-.06-.36-.04-.11-.09-.2-.15-.28-.07-.08-.15-.14-.24-.18-.09-.04-.2-.06-.32-.06s-.22.02-.31.06-.18.1-.25.17c-.07.08-.14.17-.19.28-.05.11-.09.24-.12.38h1.65Z"/>
      <path class="cls-3" d="M33.48,12h.92l.06.43c.17-.16.36-.29.58-.38s.46-.14.74-.14c.24,0,.46.04.67.11s.39.19.55.34c.16.15.28.35.37.58s.14.51.14.83v2.71h-1.17v-2.58c0-.19-.02-.35-.07-.48-.05-.13-.11-.24-.19-.32s-.17-.14-.27-.18-.21-.06-.32-.06c-.15,0-.3.04-.45.11-.14.07-.28.17-.39.31v3.2h-1.17v-4.49Z"/>
      <path class="cls-3" d="M38.78,15.33c.19.11.38.2.57.25.19.06.38.09.57.09.1,0,.19,0,.27-.03.08-.02.15-.05.2-.08.05-.04.1-.08.13-.12.03-.05.05-.1.05-.16,0-.09-.03-.17-.09-.24-.06-.07-.14-.12-.24-.18-.1-.05-.21-.1-.33-.14-.12-.05-.25-.1-.38-.15-.13-.05-.26-.12-.38-.18-.12-.07-.23-.15-.33-.25-.1-.1-.17-.22-.23-.36s-.09-.31-.09-.5c0-.21.04-.39.12-.56.08-.17.2-.31.35-.42.15-.12.33-.21.55-.27.21-.06.45-.1.72-.1.23,0,.46.03.68.08.22.05.42.13.59.23l-.24.89c-.15-.09-.31-.17-.48-.22-.17-.05-.34-.08-.51-.08-.1,0-.18,0-.26.03s-.14.04-.2.07c-.05.03-.09.07-.12.11s-.04.1-.04.15c0,.09.03.17.09.23.06.06.14.12.23.17.1.05.21.09.33.14.12.04.25.09.38.15.13.05.25.11.38.18s.23.16.33.26c.1.1.18.23.24.37.06.14.09.31.09.51,0,.21-.04.41-.13.58-.08.17-.21.32-.36.44s-.34.21-.56.28c-.22.06-.46.1-.72.1-.13,0-.26,0-.39-.02-.13-.01-.25-.04-.37-.07-.12-.03-.23-.07-.34-.11s-.21-.09-.3-.15l.22-.9Z"/>
      <path class="cls-3" d="M46.08,16.11c-.2.15-.42.26-.67.34-.24.08-.51.12-.8.12-.32,0-.61-.05-.87-.16-.26-.11-.48-.26-.67-.46-.19-.2-.33-.44-.44-.72-.1-.28-.16-.61-.16-.96,0-.38.06-.72.17-1.01s.27-.54.47-.74c.2-.2.43-.35.69-.46.27-.1.55-.16.85-.16.25,0,.48.03.68.1.2.07.39.16.56.28l-.25.91c-.13-.1-.27-.17-.41-.22-.14-.05-.29-.08-.44-.08s-.3.03-.43.09c-.14.06-.25.14-.36.25-.1.11-.18.25-.24.41-.06.17-.09.36-.09.57s.03.4.08.56.13.31.23.42c.1.12.22.21.36.27.14.06.3.09.48.09.2,0,.39-.03.55-.1.16-.07.31-.16.45-.29l.26.94Z"/>
      <path class="cls-3" d="M46.87,9.92l1.17-.13v2.49c.16-.12.33-.21.52-.28.19-.06.39-.1.62-.1.24,0,.46.04.67.11.21.08.39.19.55.34.16.15.28.35.37.58s.14.51.14.83v2.71h-1.17v-2.58c0-.19-.02-.35-.07-.48-.05-.13-.11-.24-.19-.32s-.17-.14-.27-.18-.21-.06-.32-.06c-.15,0-.3.04-.45.11-.14.07-.28.17-.39.31v3.2h-1.17v-6.57Z"/>
      <path class="cls-3" d="M51.97,12.49c.26-.18.54-.33.86-.43.32-.1.66-.15,1.02-.15.3,0,.57.04.81.11.24.07.44.18.6.33.16.15.29.33.37.56.08.22.13.49.13.81v1.51c0,.25.1.37.31.37.06,0,.12-.01.17-.03.05-.02.1-.05.16-.09l.11.89c-.1.06-.21.11-.33.14s-.27.05-.43.05c-.24,0-.44-.05-.59-.14-.16-.09-.27-.21-.35-.35-.07.07-.16.13-.25.2-.09.06-.19.12-.3.16-.11.04-.24.08-.37.11s-.27.04-.42.04c-.23,0-.44-.03-.63-.1-.19-.06-.34-.15-.48-.27-.13-.11-.23-.25-.3-.41-.07-.16-.1-.33-.1-.51,0-.22.05-.41.14-.58.09-.17.22-.31.4-.43.17-.12.38-.21.63-.27.25-.06.53-.09.84-.09.12,0,.23,0,.34.01.1,0,.2.02.3.04v-.19c0-.17-.02-.3-.06-.42-.04-.11-.1-.21-.18-.28-.08-.07-.18-.13-.29-.16-.12-.03-.25-.05-.4-.05-.28,0-.53.05-.77.14-.23.09-.46.22-.67.37l-.25-.9ZM54.59,14.79c-.09-.02-.18-.04-.27-.04-.09,0-.19-.01-.29-.01-.15,0-.28.01-.4.03-.11.02-.21.05-.29.1-.08.04-.13.09-.17.16s-.06.13-.06.21c0,.07.01.14.04.19.03.06.07.1.12.14.05.04.11.07.19.09.07.02.16.03.25.03.19,0,.36-.04.51-.11.15-.07.27-.16.37-.28v-.5Z"/>
      <path class="cls-3" d="M57.22,12h.92l.06.45c.19-.18.41-.32.63-.41.23-.09.48-.13.74-.13.28,0,.53.05.77.16.23.1.43.25.6.44.17.19.3.42.39.69.09.27.14.57.14.89,0,.38-.06.71-.18,1.02-.12.31-.3.57-.55.78s-.54.38-.89.5-.76.18-1.21.18h-.24v1.91l-1.17.12v-6.61ZM58.39,15.58h.34c.26,0,.49-.04.69-.1.19-.07.35-.17.48-.29.13-.13.22-.28.28-.46.06-.18.09-.38.09-.6,0-.19-.02-.36-.07-.52-.05-.16-.11-.29-.2-.4-.09-.11-.19-.2-.31-.26s-.26-.09-.42-.09c-.17,0-.33.04-.48.11-.15.08-.28.18-.4.31v2.29Z"/>
      <path class="cls-3" d="M62.52,12h.92l.06.45c.19-.18.41-.32.63-.41.23-.09.48-.13.74-.13.28,0,.53.05.77.16.23.1.43.25.6.44.17.19.3.42.39.69.09.27.14.57.14.89,0,.38-.06.71-.18,1.02-.12.31-.3.57-.55.78s-.54.38-.89.5-.76.18-1.21.18h-.24v1.91l-1.17.12v-6.61ZM63.69,15.58h.34c.26,0,.49-.04.69-.1.19-.07.35-.17.48-.29.13-.13.22-.28.28-.46.06-.18.09-.38.09-.6,0-.19-.02-.36-.07-.52-.05-.16-.11-.29-.2-.4-.09-.11-.19-.2-.31-.26s-.26-.09-.42-.09c-.17,0-.33.04-.48.11-.15.08-.28.18-.4.31v2.29Z"/>
      <path class="cls-3" d="M71.63,16.1c-.24.16-.5.27-.79.36-.28.08-.59.12-.92.12-.36,0-.69-.05-.97-.16-.29-.1-.53-.25-.73-.45-.2-.2-.35-.44-.46-.72-.11-.29-.16-.61-.16-.96s.05-.69.15-.98c.1-.29.24-.54.43-.75.18-.21.41-.37.67-.48.26-.11.54-.17.85-.17.28,0,.54.05.77.14.23.1.43.23.59.42.16.18.29.41.38.67s.13.57.13.91c0,.08,0,.17,0,.24,0,.08-.01.15-.02.23h-2.77c.02.18.06.34.12.47.07.14.15.25.26.34.11.09.24.17.39.22.15.05.33.08.52.08.25,0,.49-.04.7-.11s.42-.18.62-.32l.24.91ZM70.44,13.7c0-.13-.02-.26-.06-.36-.04-.11-.09-.2-.15-.28-.07-.08-.15-.14-.24-.18-.09-.04-.2-.06-.32-.06s-.22.02-.31.06-.18.1-.25.17c-.07.08-.14.17-.19.28-.05.11-.09.24-.12.38h1.65Z"/>
      <path class="cls-3" d="M73.85,15.09c0,.17.04.29.11.37.07.08.17.12.3.12.08,0,.14,0,.2-.03.06-.02.12-.04.17-.08l.13.92c-.13.06-.26.1-.41.13-.15.03-.3.05-.44.05-.2,0-.37-.03-.52-.08-.15-.06-.28-.14-.38-.25-.11-.11-.19-.25-.24-.43-.05-.17-.08-.37-.08-.6v-5.3l1.17-.13v5.3Z"/>
      <path class="cls-3" d="M76.09,9.79c.11,0,.21.02.31.06.09.04.18.09.25.16.07.07.13.15.17.25.04.1.06.2.06.31s-.02.21-.06.31c-.04.09-.09.17-.17.24-.07.07-.15.12-.25.16-.09.04-.2.06-.31.06s-.21-.02-.31-.06c-.09-.04-.18-.09-.25-.16-.07-.07-.12-.15-.16-.24-.04-.09-.06-.2-.06-.31s.02-.21.06-.31c.04-.09.09-.18.16-.25.07-.07.15-.12.25-.16.09-.04.2-.06.31-.06ZM75.5,12h1.17v4.49h-1.17v-4.49Z"/>
      <path class="cls-3" d="M79.13,17.02c0,.25-.03.48-.1.69s-.16.38-.29.52-.28.25-.47.33-.4.11-.64.11c-.16,0-.31-.02-.45-.05-.14-.03-.27-.08-.39-.13l.14-.95c.08.04.16.07.25.09.08.02.17.03.25.03.18,0,.31-.05.4-.16.09-.11.14-.27.14-.47v-5.03h1.17v5.02ZM78.54,9.79c.11,0,.21.02.31.06.09.04.18.09.25.16.07.07.13.15.17.25.04.1.06.2.06.31s-.02.21-.06.31c-.04.09-.09.17-.17.24-.07.07-.15.12-.25.16-.09.04-.2.06-.31.06s-.21-.02-.31-.06c-.09-.04-.18-.09-.25-.16-.07-.07-.12-.15-.16-.24-.04-.09-.06-.2-.06-.31s.02-.21.06-.31c.04-.09.09-.18.16-.25.07-.07.15-.12.25-.16.09-.04.2-.06.31-.06Z"/>
      <path class="cls-3" d="M81.58,13.72c.33-.23.63-.49.91-.78s.54-.6.78-.94h1.2c-.2.34-.42.65-.65.95-.23.3-.48.58-.74.84.25.4.49.82.73,1.27.24.45.49.92.74,1.42h-1.3c-.17-.35-.34-.69-.52-1.02-.18-.33-.36-.66-.56-.99-.09.07-.19.14-.29.2-.1.07-.2.13-.31.19v1.61h-1.17v-6.57l1.17-.13v3.93Z"/>
      <path class="cls-3" d="M45.55,21.04c-.11,1.06-.28,2.11-.5,3.16s-.5,2.08-.81,3.08h-1.64l-1.08-4.56-1.08,4.56h-1.62c-.32-1-.59-2.03-.81-3.08-.22-1.05-.39-2.11-.5-3.16h1.24c.05.42.1.85.17,1.28s.14.86.22,1.29c.08.43.17.85.27,1.26.1.41.2.82.31,1.21l1.17-5.03h1.31l1.19,5.05c.11-.39.21-.79.31-1.21.1-.42.19-.84.27-1.27.08-.43.16-.86.22-1.29.06-.43.12-.86.17-1.29h1.2Z"/>
      <path class="cls-3" d="M50.07,26.9c-.24.16-.5.27-.79.36-.28.08-.59.12-.92.12-.36,0-.69-.05-.97-.16-.29-.1-.53-.25-.73-.45-.2-.2-.35-.44-.46-.72-.11-.29-.16-.61-.16-.96s.05-.69.15-.98c.1-.29.24-.54.43-.75.18-.21.41-.37.67-.48.26-.11.54-.17.85-.17.28,0,.54.05.77.14.23.1.43.23.59.42.16.18.29.41.38.67s.13.57.13.91c0,.08,0,.17,0,.24,0,.08-.01.15-.02.23h-2.77c.02.18.06.34.12.47.07.14.15.25.26.34.11.09.24.17.39.22.15.05.33.08.52.08.25,0,.49-.04.7-.11s.42-.18.62-.32l.24.91ZM48.88,24.5c0-.13-.02-.26-.06-.36-.04-.11-.09-.2-.15-.28-.07-.08-.15-.14-.24-.18-.09-.04-.2-.06-.32-.06s-.22.02-.31.06-.18.1-.25.17c-.07.08-.14.17-.19.28-.05.11-.09.24-.12.38h1.65Z"/>
      <path class="cls-3" d="M51.15,22.8h.92l.08.55c.08-.11.16-.2.24-.28s.16-.15.25-.2.17-.1.27-.12c.09-.03.19-.04.29-.04.08,0,.16,0,.23.02.07.02.14.04.2.07l-.09,1.03c-.06-.03-.13-.06-.2-.07-.07-.02-.13-.02-.2-.02s-.13,0-.2.03c-.07.02-.13.05-.2.09-.07.04-.14.1-.21.17-.07.07-.14.16-.21.26v3h-1.17v-4.49Z"/>
      <path class="cls-3" d="M55.54,24.52c.33-.23.63-.49.91-.78s.54-.6.78-.94h1.2c-.2.34-.42.65-.65.95-.23.3-.48.58-.74.84.25.4.49.82.73,1.27.24.45.49.92.74,1.42h-1.3c-.17-.35-.34-.69-.52-1.02-.18-.33-.36-.66-.56-.99-.09.07-.19.14-.29.2-.1.07-.2.13-.31.19v1.61h-1.17v-6.57l1.17-.13v3.93Z"/>
    </g>
    <g>
      <path class="cls-3" d="M119.11,13.74h-3.19v2.09h2.95v1.35h-2.95v2.19h3.19v1.35h-4.82v-8.33h4.82v1.35Z"/>
      <path class="cls-3" d="M120.58,14.73h1.23l.08.57c.23-.21.49-.38.78-.51s.62-.19.98-.19c.32,0,.62.05.9.15.28.1.52.25.73.46s.37.46.49.78.18.68.18,1.1v3.62h-1.56v-3.43c0-.25-.03-.47-.09-.64s-.14-.32-.25-.43-.23-.19-.36-.24c-.14-.05-.28-.08-.43-.08-.21,0-.41.05-.6.14-.19.1-.37.23-.52.41v4.27h-1.56v-5.98Z"/>
      <path class="cls-3" d="M132.22,15.96s-.06,0-.08,0-.05,0-.08,0c.04.11.08.23.11.35s.04.25.04.38c0,.34-.06.64-.19.9s-.3.49-.52.67-.48.32-.79.42-.63.15-.98.15h-.13s-.08,0-.13-.01c-.06.07-.1.14-.13.22s-.05.16-.05.25c0,.07.01.13.04.19s.07.11.12.16.12.08.19.11.15.04.24.04h.6c.36,0,.68.04.96.12s.52.2.72.35.35.35.46.57.16.48.16.76c0,.32-.07.6-.21.86s-.33.48-.59.66-.57.32-.94.41-.79.14-1.26.14c-.43,0-.82-.04-1.17-.13s-.64-.21-.89-.38-.43-.37-.56-.6-.19-.5-.19-.8c0-.2.03-.39.08-.57s.14-.34.25-.48.24-.27.4-.38.33-.19.52-.26c-.12-.08-.21-.19-.27-.32s-.09-.28-.09-.45.03-.31.09-.45.15-.27.26-.39c-.29-.18-.51-.4-.68-.69s-.25-.62-.25-1c0-.34.07-.65.2-.92s.31-.49.53-.68.49-.32.79-.42.63-.14.98-.14c.16,0,.31,0,.46.03s.29.05.43.1h2.1v1.22h-.57ZM129.53,20.95c-.35,0-.61.06-.8.19s-.28.3-.28.52c0,.12.03.22.1.32s.16.18.28.25.27.12.44.16.37.06.59.06.42-.02.59-.06.32-.1.45-.17.22-.16.28-.26.1-.21.1-.33c0-.21-.09-.38-.26-.5s-.41-.19-.71-.19h-.77ZM129.75,15.8c-.13,0-.26.02-.38.06s-.23.11-.31.19-.16.18-.21.29-.08.24-.08.38.03.27.08.38.13.21.22.3.2.15.32.19.25.07.4.07c.13,0,.25-.02.37-.07s.22-.11.31-.19.16-.18.21-.29.08-.24.08-.37-.03-.27-.08-.39-.12-.22-.22-.3-.2-.15-.32-.19-.25-.06-.38-.06Z"/>
      <path class="cls-3" d="M138.86,20.2c-.32.21-.67.37-1.05.47s-.79.16-1.22.16c-.48,0-.92-.07-1.3-.21s-.71-.34-.98-.6-.47-.59-.62-.97-.21-.81-.21-1.29.07-.92.2-1.31.33-.72.57-1,.54-.49.89-.64.73-.22,1.14-.22c.38,0,.72.06,1.03.19s.57.31.79.56.38.54.5.89.18.75.18,1.21c0,.11,0,.22,0,.32s-.02.2-.03.3h-3.69c.02.24.08.45.17.63s.2.33.35.46.32.22.52.29c.21.07.44.1.7.1.34,0,.65-.05.93-.15.29-.1.56-.24.83-.43l.32,1.21ZM137.28,17c0-.18-.03-.34-.08-.49s-.12-.27-.2-.37c-.09-.1-.2-.18-.32-.24-.13-.05-.27-.08-.42-.08s-.29.03-.42.08-.24.13-.34.23-.18.23-.25.37c-.07.15-.12.31-.16.5h2.2Z"/>
      <path class="cls-3" d="M141.82,18.86c0,.22.05.39.14.5s.23.16.4.16c.1,0,.19-.01.27-.04s.16-.06.23-.11l.17,1.22c-.17.08-.35.14-.55.18s-.4.06-.59.06c-.26,0-.49-.04-.69-.11s-.37-.19-.51-.34-.25-.34-.32-.57-.11-.49-.11-.79v-7.07l1.56-.18v7.07Z"/>
      <path class="cls-3" d="M144.08,19.18c.25.15.5.26.75.34s.5.11.76.11c.14,0,.26-.01.37-.04s.2-.06.27-.11.13-.1.17-.17.06-.14.06-.21c0-.12-.04-.23-.12-.32s-.18-.17-.31-.23-.28-.13-.44-.19-.33-.13-.51-.2-.34-.15-.51-.25-.31-.21-.44-.34-.23-.3-.31-.48-.12-.41-.12-.67c0-.27.05-.52.16-.74s.26-.41.47-.57.45-.27.73-.36.6-.13.96-.13c.31,0,.61.04.91.11s.56.17.79.31l-.32,1.18c-.2-.12-.41-.22-.64-.29s-.46-.1-.69-.1c-.13,0-.25.01-.35.04s-.19.06-.26.1-.12.09-.16.15-.05.13-.05.21c0,.12.04.22.12.3s.18.16.31.22.28.13.45.18.33.12.51.19.34.15.5.25.31.21.45.35.24.3.32.5.12.42.12.68c0,.29-.06.54-.17.77s-.27.42-.48.58-.46.28-.75.37-.62.13-.97.13c-.18,0-.35,0-.52-.03s-.33-.05-.49-.09-.31-.09-.45-.15-.28-.12-.4-.2l.3-1.2Z"/>
    </g>
  </g>
</svg>