<?xml version="1.0" encoding="UTF-8"?>
<svg id="Layer_2" data-name="Layer 2" xmlns="http://www.w3.org/2000/svg" viewBox="0 0 265.83 95.33">
  <defs>
    <style>
      .cls-1 {
        opacity: .75;
      }

      .cls-1, .cls-2, .cls-3, .cls-4 {
        stroke-width: 0px;
      }

      .cls-1, .cls-2, .cls-4 {
        fill: #005f56;
      }

      .cls-2 {
        opacity: .5;
      }

      .cls-5, .cls-3 {
        fill: #fff;
      }

      .cls-5, .cls-6 {
        stroke: #005f56;
        stroke-miterlimit: 10;
        stroke-width: 4px;
      }

      .cls-6 {
        fill: none;
      }
    </style>
  </defs>
  <g id="Layer_1-2" data-name="Layer 1">
    <path class="cls-1" d="M25.63,2.11h63.63v28.96H2v-15.63C2,8.09,12.58,2.11,25.63,2.11Z"/>
    <rect class="cls-1" x="89.26" y="2.11" width="87.26" height="28.96"/>
    <path class="cls-1" d="M176.52,2.11h51.68c19.65,0,35.58,8.99,35.58,20.09v8.88h-87.26V2.11Z"/>
    <path class="cls-5" d="M2,32.7h87.26v60.63H23.98c-12.14,0-21.98-9.84-21.98-21.98v-38.65Z"/>
    <rect class="cls-5" x="89.26" y="32.7" width="87.26" height="60.63"/>
    <path class="cls-5" d="M176.52,32.7h87.26v28.94c0,17.5-14.19,31.69-31.69,31.69h-55.58v-60.63Z"/>
    <path class="cls-2" d="M1.82,32.37h87.26v60.63H23.48c-11.96,0-21.66-9.7-21.66-21.66v-38.97Z"/>
    <path class="cls-2" d="M176.35,32.37h87.26v29.19c0,17.36-14.07,31.43-31.43,31.43h-55.83v-60.63Z"/>
    <path class="cls-6" d="M26.48,2h62.83v28.96H2.04v-15.17C2.04,8.17,12.98,2,26.48,2Z"/>
    <rect class="cls-6" x="89.31" y="2" width="87.26" height="28.96"/>
    <path class="cls-6" d="M176.57,2h53.91c18.42,0,33.35,8.43,33.35,18.82v10.14h-87.26V2Z"/>
    <path class="cls-4" d="M135.27,63.58h.93c.32,0,.6-.04.86-.11.25-.07.47-.17.65-.3.18-.13.31-.28.41-.46.1-.18.14-.37.14-.58,0-.2-.03-.37-.1-.53-.07-.16-.16-.29-.29-.39-.12-.11-.28-.19-.46-.24-.18-.05-.39-.08-.61-.08-.36,0-.71.06-1.06.18-.35.12-.67.3-.96.54l-.37-1.38c.38-.28.79-.49,1.24-.64.45-.15.93-.23,1.46-.23.48,0,.91.06,1.28.18.38.12.7.29.96.51.26.22.46.49.6.81.14.32.21.67.21,1.06,0,.25-.04.49-.11.71-.07.22-.17.42-.3.6-.13.18-.29.34-.46.48-.18.14-.38.26-.58.37.59.22,1.04.53,1.35.92s.46.88.46,1.45c0,.45-.09.86-.26,1.22-.18.36-.42.67-.74.92-.32.25-.7.44-1.13.58-.44.14-.92.21-1.45.21s-1-.06-1.47-.17-.88-.28-1.25-.5l.39-1.45c.33.19.68.34,1.06.44s.78.16,1.21.16c.26,0,.5-.03.72-.1.22-.07.4-.16.55-.28.15-.12.27-.27.35-.44.08-.17.12-.36.12-.56,0-.22-.05-.42-.14-.6s-.23-.33-.41-.45c-.19-.12-.42-.22-.71-.28-.28-.06-.62-.1-1-.1h-1.09v-1.46Z"/>
    <path class="cls-3" d="M42.24,52.5c-.28.16-.55.32-.83.47-.27.15-.54.3-.81.43l-.64-1.31c.23-.13.45-.25.66-.38.21-.13.42-.25.62-.38.2-.13.41-.26.61-.4.21-.14.42-.29.64-.45h1.59v9.71h-1.85v-7.71Z"/>
    <path class="cls-3" d="M217.24,57.5c-.28.16-.55.32-.83.47-.27.15-.54.3-.81.43l-.64-1.31c.23-.13.45-.25.66-.38.21-.13.42-.25.62-.38.2-.13.41-.26.61-.4.21-.14.42-.29.64-.45h1.59v9.71h-1.85v-7.71Z"/>
    <g>
      <path class="cls-3" d="M20.44,8.29c-.12,1.18-.31,2.35-.56,3.52-.25,1.17-.55,2.31-.9,3.42h-1.83l-1.2-5.07-1.2,5.07h-1.79c-.35-1.11-.66-2.25-.9-3.42-.25-1.17-.43-2.34-.55-3.52h1.38c.05.47.11.94.19,1.42.07.48.15.96.24,1.43.09.47.19.94.3,1.4.11.46.22.91.34,1.34l1.3-5.59h1.46l1.32,5.61c.12-.43.24-.88.34-1.35.11-.46.21-.93.3-1.41.09-.47.17-.95.25-1.43.07-.48.13-.96.19-1.43h1.34Z"/>
      <path class="cls-3" d="M25.47,14.8c-.27.17-.56.3-.87.39-.32.09-.66.14-1.02.14-.4,0-.76-.06-1.08-.17-.32-.12-.59-.28-.81-.5-.22-.22-.39-.49-.51-.8-.12-.32-.18-.68-.18-1.07s.06-.77.17-1.09c.11-.32.27-.6.48-.83.21-.23.45-.41.74-.53.29-.12.61-.19.95-.19.32,0,.6.05.86.16s.48.26.66.46c.18.2.32.45.42.74s.15.63.15,1.01c0,.09,0,.18,0,.27,0,.08-.01.17-.03.25h-3.08c.02.2.07.37.14.53.07.15.17.28.29.38.12.1.27.18.44.24.17.06.37.08.58.08.28,0,.54-.04.78-.12.24-.08.47-.2.69-.36l.26,1.01ZM24.14,12.13c0-.15-.03-.29-.07-.41-.04-.12-.1-.22-.17-.31-.07-.09-.16-.15-.27-.2-.11-.04-.22-.07-.35-.07s-.24.02-.35.06c-.11.04-.2.11-.28.19-.08.09-.15.19-.21.31-.06.12-.1.26-.13.42h1.83Z"/>
      <path class="cls-3" d="M26.17,11.27v-1.03h.7v-1.19l1.3-.13v1.32h1.39v1.03h-1.39v2.23c0,.24.05.43.17.54s.27.18.49.18c.14,0,.27-.02.4-.07.12-.04.25-.12.37-.21l.17,1.04c-.18.12-.37.2-.59.26-.22.06-.44.08-.66.08-.53,0-.93-.14-1.21-.42s-.42-.71-.42-1.29v-2.34h-.7Z"/>
      <path class="cls-3" d="M34.76,14.8c-.27.17-.56.3-.87.39-.32.09-.66.14-1.02.14-.4,0-.76-.06-1.08-.17-.32-.12-.59-.28-.81-.5-.22-.22-.39-.49-.51-.8-.12-.32-.18-.68-.18-1.07s.06-.77.17-1.09c.11-.32.27-.6.48-.83.21-.23.45-.41.74-.53.29-.12.61-.19.95-.19.32,0,.6.05.86.16s.48.26.66.46c.18.2.32.45.42.74s.15.63.15,1.01c0,.09,0,.18,0,.27,0,.08-.01.17-.03.25h-3.08c.02.2.07.37.14.53.07.15.17.28.29.38.12.1.27.18.44.24.17.06.37.08.58.08.28,0,.54-.04.78-.12.24-.08.47-.2.69-.36l.26,1.01ZM33.44,12.13c0-.15-.03-.29-.07-.41-.04-.12-.1-.22-.17-.31-.07-.09-.16-.15-.27-.2-.11-.04-.22-.07-.35-.07s-.24.02-.35.06c-.11.04-.2.11-.28.19-.08.09-.15.19-.21.31-.06.12-.1.26-.13.42h1.83Z"/>
      <path class="cls-3" d="M35.96,10.24h1.02l.07.48c.19-.18.41-.32.65-.42.24-.11.52-.16.82-.16.27,0,.52.04.75.13.23.08.44.21.61.38.17.17.31.39.41.65.1.26.15.57.15.92v3.01h-1.3v-2.86c0-.21-.03-.39-.08-.54-.05-.15-.12-.27-.21-.36-.09-.09-.19-.16-.3-.2-.11-.04-.23-.06-.36-.06-.17,0-.34.04-.5.12-.16.08-.31.19-.44.34v3.56h-1.3v-4.99Z"/>
      <path class="cls-3" d="M41.85,13.95c.21.12.42.22.63.28.21.06.42.09.63.09.11,0,.22,0,.31-.03.09-.02.16-.05.22-.09.06-.04.11-.09.14-.14.04-.05.05-.11.05-.18,0-.1-.03-.19-.1-.27-.07-.07-.15-.14-.26-.2s-.23-.11-.37-.16c-.14-.05-.28-.11-.42-.17-.14-.06-.28-.13-.42-.21-.14-.08-.26-.17-.37-.28-.11-.11-.19-.25-.26-.4s-.1-.34-.1-.56c0-.23.04-.43.13-.62.09-.19.22-.34.39-.47.17-.13.37-.23.61-.3.24-.07.5-.11.8-.11.26,0,.51.03.75.09.24.06.46.14.66.26l-.27.99c-.16-.1-.34-.18-.53-.24-.19-.06-.38-.09-.57-.09-.11,0-.21,0-.29.03s-.16.05-.22.08c-.06.04-.1.08-.13.12s-.04.11-.04.17c0,.1.03.19.1.25s.15.13.26.18c.11.05.23.11.37.15.14.05.28.1.42.16s.28.13.42.21.26.18.37.29.2.25.26.41c.07.16.1.35.1.57,0,.24-.05.45-.14.64-.09.19-.23.35-.4.49-.17.13-.38.24-.62.31-.24.07-.51.11-.81.11-.15,0-.29,0-.43-.02-.14-.02-.28-.04-.41-.07-.13-.03-.26-.07-.38-.12s-.23-.11-.33-.17l.25-1Z"/>
      <path class="cls-3" d="M49.96,14.81c-.22.16-.47.29-.75.38-.27.09-.57.13-.89.13-.35,0-.67-.06-.96-.18s-.54-.29-.74-.51c-.21-.22-.37-.49-.48-.81-.12-.31-.17-.67-.17-1.07,0-.42.06-.8.19-1.12.13-.33.3-.6.52-.82.22-.22.48-.39.77-.51.29-.12.61-.17.95-.17.28,0,.53.04.75.11.23.07.43.18.62.31l-.28,1.02c-.14-.11-.29-.19-.45-.25-.16-.06-.32-.09-.49-.09s-.33.03-.48.1c-.15.06-.28.16-.39.28-.11.12-.2.28-.27.46-.07.18-.1.39-.1.64s.03.44.09.63c.06.19.14.34.25.47s.25.23.4.3c.16.07.33.1.53.1.23,0,.43-.04.61-.11.18-.07.34-.18.5-.32l.29,1.04Z"/>
      <path class="cls-3" d="M50.84,7.93l1.3-.15v2.77c.17-.13.36-.24.57-.31.21-.07.44-.11.68-.11.27,0,.52.04.75.13.23.08.44.21.61.38.17.17.31.39.41.65.1.26.15.57.15.92v3.01h-1.3v-2.86c0-.21-.03-.39-.08-.54-.05-.15-.12-.27-.21-.36-.09-.09-.19-.16-.3-.2-.11-.04-.23-.06-.36-.06-.17,0-.34.04-.5.12-.16.08-.31.19-.44.34v3.56h-1.3v-7.29Z"/>
      <path class="cls-3" d="M56.5,10.79c.29-.21.61-.36.96-.48.35-.11.73-.17,1.14-.17.33,0,.63.04.9.12s.49.2.67.37c.18.16.32.37.41.62.09.25.14.55.14.9v1.67c0,.27.11.41.34.41.07,0,.14-.01.19-.04.06-.03.11-.06.17-.11l.12.99c-.11.07-.23.12-.37.16s-.29.06-.47.06c-.27,0-.49-.05-.66-.15-.17-.1-.31-.23-.39-.38-.08.07-.17.15-.27.22s-.21.13-.34.18c-.13.05-.26.09-.41.12s-.3.04-.47.04c-.26,0-.49-.04-.7-.11-.21-.07-.38-.17-.53-.3s-.26-.28-.33-.45c-.08-.17-.12-.36-.12-.57,0-.24.05-.46.15-.65.1-.19.25-.35.44-.48.19-.13.43-.23.7-.3.28-.07.59-.1.93-.1.13,0,.26,0,.37.02.12,0,.22.02.33.04v-.21c0-.18-.02-.34-.07-.46-.05-.13-.11-.23-.2-.31-.09-.08-.2-.14-.33-.17-.13-.03-.28-.05-.44-.05-.31,0-.59.05-.85.15-.26.1-.51.24-.75.41l-.27-1ZM59.41,13.34c-.1-.02-.2-.04-.31-.05-.1,0-.21-.02-.32-.02-.17,0-.31.01-.44.04-.13.03-.23.06-.32.11s-.15.11-.19.17-.06.15-.06.23c0,.08.02.15.05.21.03.06.08.12.13.16.06.04.13.08.21.1s.17.03.28.03c.21,0,.4-.04.57-.12.16-.08.3-.18.41-.31v-.56Z"/>
      <path class="cls-3" d="M62.33,10.24h1.02l.07.5c.21-.21.45-.36.71-.46.25-.1.53-.15.82-.15.31,0,.59.06.85.17.26.12.48.28.67.49.18.21.33.47.43.77.1.3.15.63.15.99,0,.42-.07.79-.21,1.14-.14.34-.34.63-.61.87-.27.24-.6.43-.99.56-.39.13-.84.2-1.35.2h-.26v2.12l-1.3.14v-7.34ZM63.64,14.23h.38c.29,0,.55-.04.76-.11.22-.08.39-.19.53-.33.14-.14.24-.31.31-.51.07-.2.1-.42.1-.66,0-.21-.03-.4-.08-.58-.05-.17-.12-.32-.22-.44-.1-.12-.21-.22-.35-.29-.14-.07-.29-.1-.46-.1-.19,0-.37.04-.54.12-.17.08-.32.2-.45.34v2.55Z"/>
      <path class="cls-3" d="M68.23,10.24h1.02l.07.5c.21-.21.45-.36.71-.46.25-.1.53-.15.82-.15.31,0,.59.06.85.17.26.12.48.28.67.49.18.21.33.47.43.77.1.3.15.63.15.99,0,.42-.07.79-.21,1.14-.14.34-.34.63-.61.87-.27.24-.6.43-.99.56-.39.13-.84.2-1.35.2h-.26v2.12l-1.3.14v-7.34ZM69.53,14.23h.38c.29,0,.55-.04.76-.11.22-.08.39-.19.53-.33.14-.14.24-.31.31-.51.07-.2.1-.42.1-.66,0-.21-.03-.4-.08-.58-.05-.17-.12-.32-.22-.44-.1-.12-.21-.22-.35-.29-.14-.07-.29-.1-.46-.1-.19,0-.37.04-.54.12-.17.08-.32.2-.45.34v2.55Z"/>
      <path class="cls-3" d="M78.35,14.8c-.27.17-.56.3-.87.39-.32.09-.66.14-1.02.14-.4,0-.76-.06-1.08-.17-.32-.12-.59-.28-.81-.5-.22-.22-.39-.49-.51-.8-.12-.32-.18-.68-.18-1.07s.06-.77.17-1.09c.11-.32.27-.6.48-.83.21-.23.45-.41.74-.53.29-.12.61-.19.95-.19.32,0,.6.05.86.16s.48.26.66.46c.18.2.32.45.42.74s.15.63.15,1.01c0,.09,0,.18,0,.27,0,.08-.01.17-.03.25h-3.08c.02.2.07.37.14.53.07.15.17.28.29.38.12.1.27.18.44.24.17.06.37.08.58.08.28,0,.54-.04.78-.12.24-.08.47-.2.69-.36l.26,1.01ZM77.03,12.13c0-.15-.03-.29-.07-.41-.04-.12-.1-.22-.17-.31-.07-.09-.16-.15-.27-.2-.11-.04-.22-.07-.35-.07s-.24.02-.35.06c-.11.04-.2.11-.28.19-.08.09-.15.19-.21.31-.06.12-.1.26-.13.42h1.83Z"/>
      <path class="cls-3" d="M79.55,10.24h1.02l.07.48c.19-.18.41-.32.65-.42.24-.11.52-.16.82-.16.27,0,.52.04.75.13.23.08.44.21.61.38.17.17.31.39.41.65.1.26.15.57.15.92v3.01h-1.3v-2.86c0-.21-.03-.39-.08-.54-.05-.15-.12-.27-.21-.36-.09-.09-.19-.16-.3-.2-.11-.04-.23-.06-.36-.06-.17,0-.34.04-.5.12-.16.08-.31.19-.44.34v3.56h-1.3v-4.99Z"/>
      <path class="cls-3" d="M27.75,19.82l-3.92,9.12-1.12-.44,3.92-9.13,1.12.45Z"/>
      <path class="cls-3" d="M37.45,20.29c-.12,1.18-.31,2.35-.56,3.52-.25,1.17-.55,2.31-.9,3.42h-1.83l-1.2-5.07-1.2,5.07h-1.79c-.35-1.11-.66-2.25-.9-3.42-.25-1.17-.43-2.34-.55-3.52h1.38c.05.47.11.94.19,1.42.07.48.15.96.24,1.43.09.47.19.94.3,1.4.11.46.22.91.34,1.34l1.3-5.59h1.46l1.32,5.61c.12-.43.24-.88.34-1.35.11-.46.21-.93.3-1.41.09-.47.17-.95.25-1.43.07-.48.13-.96.19-1.43h1.34Z"/>
      <path class="cls-3" d="M38.95,19.79c.12,0,.24.02.34.07.1.04.2.1.27.18s.14.17.18.27c.04.11.07.22.07.34s-.02.24-.07.34c-.04.1-.1.19-.18.27-.08.08-.17.14-.27.18-.1.04-.22.07-.34.07s-.24-.02-.34-.07c-.1-.04-.2-.1-.27-.18-.08-.08-.14-.17-.18-.27-.04-.11-.07-.22-.07-.34s.02-.23.07-.34c.04-.11.1-.2.18-.27s.17-.14.27-.18c.1-.04.22-.07.34-.07ZM38.3,22.24h1.3v4.99h-1.3v-4.99Z"/>
      <path class="cls-3" d="M41.08,25.95c.21.12.42.22.63.28.21.06.42.09.63.09.11,0,.22,0,.31-.03.09-.02.16-.05.22-.09.06-.04.11-.09.14-.14.04-.05.05-.11.05-.18,0-.1-.03-.19-.1-.27-.07-.07-.15-.14-.26-.2s-.23-.11-.37-.16c-.14-.05-.28-.11-.42-.17-.14-.06-.28-.13-.42-.21-.14-.08-.26-.17-.37-.28-.11-.11-.19-.25-.26-.4s-.1-.34-.1-.56c0-.23.04-.43.13-.62.09-.19.22-.34.39-.47.17-.13.37-.23.61-.3.24-.07.5-.11.8-.11.26,0,.51.03.75.09.24.06.46.14.66.26l-.27.99c-.16-.1-.34-.18-.53-.24-.19-.06-.38-.09-.57-.09-.11,0-.21,0-.29.03s-.16.05-.22.08c-.06.04-.1.08-.13.12s-.04.11-.04.17c0,.1.03.19.1.25s.15.13.26.18c.11.05.23.11.37.15.14.05.28.1.42.16s.28.13.42.21.26.18.37.29.2.25.26.41c.07.16.1.35.1.57,0,.24-.05.45-.14.64-.09.19-.23.35-.4.49-.17.13-.38.24-.62.31-.24.07-.51.11-.81.11-.15,0-.29,0-.43-.02-.14-.02-.28-.04-.41-.07-.13-.03-.26-.07-.38-.12s-.23-.11-.33-.17l.25-1Z"/>
      <path class="cls-3" d="M46.75,24.16c.36-.26.7-.54,1.01-.86.32-.32.6-.67.86-1.05h1.33c-.22.38-.46.73-.72,1.06-.26.33-.53.64-.82.93.28.44.55.91.81,1.41s.54,1.03.82,1.58h-1.44c-.19-.39-.38-.76-.58-1.13-.2-.37-.4-.73-.62-1.1-.1.08-.21.15-.32.23-.11.07-.22.14-.34.21v1.79h-1.3v-7.29l1.3-.15v4.37Z"/>
      <path class="cls-3" d="M55.31,27.23h-1.02l-.07-.49c-.19.19-.41.33-.66.44-.25.11-.52.16-.82.16-.26,0-.51-.04-.75-.13-.23-.08-.44-.21-.61-.38-.17-.17-.31-.39-.41-.65-.1-.26-.15-.57-.15-.92v-3.01h1.3v2.85c0,.21.03.39.08.54.05.15.12.27.21.36.09.09.19.16.3.2s.23.06.36.06c.18,0,.34-.04.5-.12.16-.08.3-.2.44-.35v-3.54h1.3v4.99Z"/>
      <path class="cls-3" d="M56.73,22.24h1.02l.07.48c.19-.18.41-.32.65-.42.24-.11.52-.16.82-.16.27,0,.52.04.75.13.23.08.44.21.61.38.17.17.31.39.41.65.1.26.15.57.15.92v3.01h-1.3v-2.86c0-.21-.03-.39-.08-.54-.05-.15-.12-.27-.21-.36-.09-.09-.19-.16-.3-.2-.11-.04-.23-.06-.36-.06-.17,0-.34.04-.5.12-.16.08-.31.19-.44.34v3.56h-1.3v-4.99Z"/>
      <path class="cls-3" d="M66.02,27.23l-.07-.5c-.21.21-.45.36-.7.46-.25.1-.53.15-.83.15s-.59-.06-.85-.18c-.26-.12-.48-.28-.67-.49-.19-.21-.33-.47-.43-.77-.1-.3-.15-.63-.15-.99,0-.42.07-.8.21-1.14.14-.34.34-.63.61-.87.27-.24.6-.43.99-.56.39-.13.84-.2,1.35-.2h.26v-2.21l1.3-.15v7.44h-1.02ZM65.74,23.24h-.38c-.29,0-.55.04-.76.12s-.39.19-.54.33c-.14.14-.25.31-.32.51s-.1.42-.1.66c0,.21.03.4.08.58.05.17.12.32.22.44.1.12.21.22.35.28s.29.1.46.1c.19,0,.37-.04.54-.12.17-.08.32-.2.45-.34v-2.55Z"/>
      <path class="cls-3" d="M72.7,26.8c-.27.17-.56.3-.87.39-.32.09-.66.14-1.02.14-.4,0-.76-.06-1.08-.17-.32-.12-.59-.28-.81-.5-.22-.22-.39-.49-.51-.8-.12-.32-.18-.68-.18-1.07s.06-.77.17-1.09c.11-.32.27-.6.48-.83.21-.23.45-.41.74-.53.29-.12.61-.19.95-.19.32,0,.6.05.86.16s.48.26.66.46c.18.2.32.45.42.74s.15.63.15,1.01c0,.09,0,.18,0,.27,0,.08-.01.17-.03.25h-3.08c.02.2.07.37.14.53.07.15.17.28.29.38.12.1.27.18.44.24.17.06.37.08.58.08.28,0,.54-.04.78-.12.24-.08.47-.2.69-.36l.26,1.01ZM71.37,24.13c0-.15-.03-.29-.07-.41-.04-.12-.1-.22-.17-.31-.07-.09-.16-.15-.27-.2-.11-.04-.22-.07-.35-.07s-.24.02-.35.06c-.11.04-.2.11-.28.19-.08.09-.15.19-.21.31-.06.12-.1.26-.13.42h1.83Z"/>
    </g>
    <g>
      <path class="cls-3" d="M125.12,13.75h-3.07v2.34h2.82v1.37h-2.82v3.26h-1.63v-8.33h4.7v1.37Z"/>
      <path class="cls-3" d="M127.96,18.86c0,.22.05.39.14.49s.23.16.4.16c.1,0,.19-.01.27-.04s.16-.06.23-.11l.17,1.22c-.17.08-.35.14-.55.18s-.4.06-.59.06c-.26,0-.49-.04-.69-.11s-.37-.19-.51-.34-.25-.34-.32-.57-.11-.49-.11-.79v-7.07l1.56-.18v7.07Z"/>
      <path class="cls-3" d="M135.18,20.2c-.32.21-.67.37-1.05.47s-.79.16-1.22.16c-.48,0-.92-.07-1.3-.21s-.71-.34-.98-.6-.47-.59-.62-.97-.21-.81-.21-1.29.07-.92.2-1.31.33-.72.57-1,.54-.49.89-.64.73-.22,1.14-.22c.38,0,.72.06,1.03.19s.57.31.79.56.38.54.5.89.18.75.18,1.21c0,.11,0,.22,0,.32s-.02.2-.03.3h-3.69c.02.24.08.45.17.63s.2.34.35.46.32.22.52.29c.21.07.44.1.7.1.34,0,.65-.05.93-.15.29-.1.56-.24.83-.43l.32,1.21ZM133.6,17c0-.18-.03-.34-.08-.49s-.12-.27-.2-.37c-.09-.1-.2-.18-.32-.24-.13-.05-.27-.08-.42-.08s-.29.03-.42.08-.24.13-.34.23-.18.22-.25.37c-.07.15-.12.31-.16.5h2.2Z"/>
      <path class="cls-3" d="M141.99,14.73c-.12.29-.26.56-.4.83-.14.27-.29.53-.45.78s-.32.5-.48.75-.34.48-.53.72c.36.46.71.93,1.04,1.41s.65.98.95,1.49h-1.75c-.23-.36-.47-.71-.72-1.07-.26-.36-.52-.71-.8-1.06-.03.05-.06.11-.09.16s-.06.11-.1.16c-.09.14-.19.29-.29.44s-.21.3-.31.45c-.1.15-.2.31-.3.46-.09.15-.19.31-.27.47h-1.6c.15-.29.3-.58.46-.85.16-.27.32-.54.49-.8s.34-.52.52-.77c.18-.25.36-.51.55-.76-.35-.44-.68-.89-1-1.36s-.62-.94-.9-1.43h1.76c.21.34.44.68.68,1.02.24.34.49.67.76,1.01.02-.05.04-.09.06-.13s.04-.08.07-.12c.19-.3.38-.61.57-.9.19-.3.35-.59.48-.88h1.6Z"/>
    </g>
    <g>
      <path class="cls-3" d="M190.68,14.39h1.63v3.64c.29-.24.57-.5.83-.77s.53-.56.78-.87.49-.62.73-.96.47-.68.69-1.05h1.68c-.41.73-.83,1.41-1.25,2.02s-.85,1.15-1.29,1.63c.49.73.96,1.49,1.41,2.28s.87,1.59,1.27,2.4h-1.8c-.16-.31-.32-.61-.49-.91s-.34-.6-.52-.9-.36-.6-.55-.9-.38-.61-.59-.91c-.16.12-.31.25-.45.36s-.29.23-.45.33v2.93h-1.63v-8.33Z"/>
      <path class="cls-3" d="M199.65,20.86c0,.22.05.39.14.49s.23.16.4.16c.1,0,.19-.01.27-.04s.16-.06.23-.11l.17,1.22c-.17.08-.35.14-.55.18s-.4.06-.59.06c-.26,0-.49-.04-.69-.11s-.37-.19-.51-.34-.25-.34-.32-.57-.11-.49-.11-.79v-7.07l1.56-.18v7.07Z"/>
      <path class="cls-3" d="M201.63,17.4c.34-.25.73-.44,1.15-.57s.88-.2,1.37-.2c.4,0,.76.05,1.08.14s.58.24.8.44.38.45.5.74.17.66.17,1.08v2.01c0,.33.14.49.41.49.09,0,.16-.02.23-.04s.14-.07.21-.12l.15,1.19c-.13.08-.28.15-.45.19s-.35.07-.57.07c-.32,0-.58-.06-.79-.18s-.37-.28-.47-.46c-.1.09-.21.18-.33.26s-.26.16-.41.22-.31.11-.49.14-.36.05-.56.05c-.31,0-.59-.04-.84-.13s-.46-.21-.64-.36-.31-.33-.4-.54-.14-.44-.14-.68c0-.29.06-.55.18-.78s.3-.42.53-.58.51-.28.84-.36.71-.12,1.12-.12c.16,0,.31,0,.45.02s.27.03.4.05v-.26c0-.22-.03-.4-.08-.55-.05-.15-.14-.28-.24-.38-.11-.1-.24-.17-.39-.21s-.33-.06-.53-.06c-.37,0-.71.06-1.02.18s-.61.29-.89.5l-.33-1.2ZM205.12,20.45c-.12-.03-.24-.05-.37-.06s-.25-.02-.39-.02c-.2,0-.38.01-.53.04s-.28.07-.38.13-.18.13-.23.21-.08.18-.08.28c0,.1.02.18.06.26s.09.14.16.19.15.09.25.12.21.04.33.04c.26,0,.49-.05.68-.14s.36-.22.49-.37v-.67Z"/>
      <path class="cls-3" d="M208.69,21.18c.25.15.5.26.75.34s.5.12.76.12c.14,0,.26-.01.37-.04s.2-.06.27-.11.13-.1.17-.17.06-.13.06-.21c0-.12-.04-.23-.12-.32s-.18-.17-.31-.23-.28-.13-.44-.19-.33-.13-.51-.2-.34-.15-.51-.25-.31-.21-.44-.34-.23-.29-.31-.48-.12-.41-.12-.67c0-.27.05-.52.16-.74s.26-.41.47-.57.45-.27.73-.36.6-.13.96-.13c.31,0,.61.04.91.11s.56.17.79.31l-.32,1.18c-.2-.12-.41-.22-.64-.29s-.46-.1-.69-.1c-.13,0-.25.01-.35.04s-.19.05-.26.1-.12.09-.16.15-.05.13-.05.21c0,.12.04.22.12.3s.18.15.31.22.28.13.45.19.33.12.51.19.34.15.5.25.31.21.45.35.24.3.32.5.12.42.12.68c0,.29-.06.54-.17.77s-.27.42-.48.58-.46.28-.75.37-.62.13-.97.13c-.18,0-.35,0-.52-.03s-.33-.05-.49-.09-.31-.09-.45-.15-.28-.12-.4-.2l.3-1.2Z"/>
      <path class="cls-3" d="M213.26,17.96v-1.23h.84v-1.43l1.56-.15v1.58h1.66v1.23h-1.66v2.67c0,.29.07.51.2.65.13.14.33.21.58.21.17,0,.33-.03.48-.08s.3-.14.44-.25l.2,1.25c-.21.14-.45.24-.71.31s-.53.1-.8.1c-.63,0-1.12-.17-1.45-.51s-.5-.86-.5-1.55v-2.81h-.84Z"/>
      <path class="cls-3" d="M219.34,13.79c.15,0,.29.03.41.08s.23.12.33.22.17.2.22.33.08.26.08.41-.03.29-.08.41-.13.23-.22.32-.2.16-.33.22-.26.08-.41.08-.29-.03-.41-.08-.23-.12-.33-.22-.17-.2-.22-.32-.08-.26-.08-.41.03-.28.08-.41.13-.24.22-.33.2-.16.33-.22.26-.08.41-.08ZM218.56,16.73h1.56v5.98h-1.56v-5.98Z"/>
      <path class="cls-3" d="M221.23,17.96v-1.23h.84v-1.43l1.56-.15v1.58h1.66v1.23h-1.66v2.67c0,.29.07.51.2.65.13.14.33.21.58.21.17,0,.33-.03.48-.08s.3-.14.44-.25l.2,1.25c-.21.14-.45.24-.71.31s-.53.1-.8.1c-.63,0-1.12-.17-1.45-.51s-.5-.86-.5-1.55v-2.81h-.84Z"/>
      <path class="cls-3" d="M231.86,22.72h-1.22l-.09-.59c-.23.22-.49.4-.79.52s-.63.19-.98.19c-.32,0-.62-.05-.9-.15s-.53-.26-.74-.46-.37-.46-.5-.78-.18-.68-.18-1.1v-3.62h1.56v3.42c0,.25.03.47.09.65s.14.32.25.43.23.19.36.24c.14.05.28.07.43.07.21,0,.41-.05.6-.15.19-.1.37-.24.53-.42v-4.25h1.56v5.98Z"/>
      <path class="cls-3" d="M235.09,20.86c0,.22.05.39.14.49s.23.16.4.16c.1,0,.19-.01.27-.04s.16-.06.23-.11l.17,1.22c-.17.08-.35.14-.55.18s-.4.06-.59.06c-.26,0-.49-.04-.69-.11s-.37-.19-.51-.34-.25-.34-.32-.57-.11-.49-.11-.79v-7.07l1.56-.18v7.07Z"/>
      <path class="cls-3" d="M237.07,17.4c.34-.25.73-.44,1.15-.57s.88-.2,1.37-.2c.4,0,.76.05,1.08.14s.58.24.8.44.38.45.5.74.17.66.17,1.08v2.01c0,.33.14.49.41.49.09,0,.16-.02.23-.04s.14-.07.21-.12l.15,1.19c-.13.08-.28.15-.45.19s-.35.07-.57.07c-.32,0-.58-.06-.79-.18s-.37-.28-.47-.46c-.1.09-.21.18-.33.26s-.26.16-.41.22-.31.11-.49.14-.36.05-.56.05c-.31,0-.59-.04-.84-.13s-.46-.21-.64-.36-.31-.33-.4-.54-.14-.44-.14-.68c0-.29.06-.55.18-.78s.3-.42.53-.58.51-.28.84-.36.71-.12,1.12-.12c.16,0,.31,0,.45.02s.27.03.4.05v-.26c0-.22-.03-.4-.08-.55-.05-.15-.14-.28-.24-.38-.11-.1-.24-.17-.39-.21s-.33-.06-.53-.06c-.37,0-.71.06-1.02.18s-.61.29-.89.5l-.33-1.2ZM240.56,20.45c-.12-.03-.24-.05-.37-.06s-.25-.02-.39-.02c-.2,0-.38.01-.53.04s-.28.07-.38.13-.18.13-.23.21-.08.18-.08.28c0,.1.02.18.06.26s.09.14.16.19.15.09.25.12.21.04.33.04c.26,0,.49-.05.68-.14s.36-.22.49-.37v-.67Z"/>
      <path class="cls-3" d="M244.06,16.73h1.23l.11.74c.11-.14.21-.27.32-.37.11-.11.22-.2.33-.27.11-.07.23-.13.35-.16.12-.04.25-.05.39-.05.11,0,.22,0,.31.03.09.02.19.05.27.1l-.12,1.38c-.08-.04-.17-.08-.26-.1-.09-.02-.18-.03-.27-.03s-.18.01-.27.04-.18.07-.27.12-.18.13-.28.22-.19.21-.29.35v4h-1.56v-5.98Z"/>
      <path class="cls-3" d="M249.14,13.79c.15,0,.29.03.41.08s.23.12.33.22.17.2.22.33.08.26.08.41-.03.29-.08.41-.13.23-.22.32-.2.16-.33.22-.26.08-.41.08-.29-.03-.41-.08-.23-.12-.33-.22-.17-.2-.22-.32-.08-.26-.08-.41.03-.28.08-.41.13-.24.22-.33.2-.16.33-.22.26-.08.41-.08ZM248.36,16.73h1.56v5.98h-1.56v-5.98Z"/>
      <path class="cls-3" d="M251.69,21.18c.25.15.5.26.75.34s.5.12.76.12c.14,0,.26-.01.37-.04s.2-.06.27-.11.13-.1.17-.17.06-.13.06-.21c0-.12-.04-.23-.12-.32s-.18-.17-.31-.23-.28-.13-.44-.19-.33-.13-.51-.2-.34-.15-.51-.25-.31-.21-.44-.34-.23-.29-.31-.48-.12-.41-.12-.67c0-.27.05-.52.16-.74s.26-.41.47-.57.45-.27.73-.36.6-.13.96-.13c.31,0,.61.04.91.11s.56.17.79.31l-.32,1.18c-.2-.12-.41-.22-.64-.29s-.46-.1-.69-.1c-.13,0-.25.01-.35.04s-.19.05-.26.1-.12.09-.16.15-.05.13-.05.21c0,.12.04.22.12.3s.18.15.31.22.28.13.45.19.33.12.51.19.34.15.5.25.31.21.45.35.24.3.32.5.12.42.12.68c0,.29-.06.54-.17.77s-.27.42-.48.58-.46.28-.75.37-.62.13-.97.13c-.18,0-.35,0-.52-.03s-.33-.05-.49-.09-.31-.09-.45-.15-.28-.12-.4-.2l.3-1.2Z"/>
    </g>
  </g>
</svg>